<svg width="39" height="32" viewBox="0 0 39 32" fill="none" xmlns="http://www.w3.org/2000/svg">
<mask id="mask0" mask-type="alpha" maskUnits="userSpaceOnUse" x="0" y="0" width="39" height="32">
<path fill-rule="evenodd" clip-rule="evenodd" d="M0 0.291504H38.7164V31.6765H0V0.291504Z" fill="white"/>
</mask>
<g mask="url(#mask0)">
<path fill-rule="evenodd" clip-rule="evenodd" d="M37.0716 29.9999H1.64498V6.75494H16.0357V9.09352C16.0357 9.55671 16.4038 9.93199 16.8581 9.93199H21.8584C22.3128 9.93199 22.6809 9.55671 22.6809 9.09352V6.75494H37.0716V29.9999ZM17.6806 3.27825C17.6806 2.55615 18.2571 1.96819 18.9657 1.96819H19.7508C20.4595 1.96819 21.0359 2.55615 21.0359 3.27825V8.25538H17.6806V3.27825ZM37.8941 5.07801H22.6809V3.27825C22.6809 1.63106 21.3666 0.29126 19.7508 0.29126H18.9657C17.3499 0.29126 16.0357 1.63106 16.0357 3.27825V5.07801H0.822488C0.368122 5.07801 0 5.4536 0 5.91647V30.8383C0 31.3012 0.368122 31.6765 0.822488 31.6765H37.8941C38.3484 31.6765 38.7165 31.3012 38.7165 30.8383V5.91647C38.7165 5.4536 38.3484 5.07801 37.8941 5.07801Z" fill="#7CBCB5"/>
</g>
<path fill-rule="evenodd" clip-rule="evenodd" d="M18.8659 14C18.3879 14 18 14.4477 18 15.0002C18 15.5523 18.3879 16 18.8659 16H32.1344C32.6124 16 33 15.5523 33 15.0002C33 14.4477 32.6124 14 32.1344 14H18.8659Z" fill="#7CBCB5"/>
<path fill-rule="evenodd" clip-rule="evenodd" d="M32.1341 19H18.8656C18.3876 19 18 19.448 18 20.0004C18 20.5524 18.3876 21 18.8656 21H32.1341C32.6124 21 33 20.5524 33 20.0004C33 19.448 32.6124 19 32.1341 19Z" fill="#7CBCB5"/>
<path fill-rule="evenodd" clip-rule="evenodd" d="M32.1341 24H18.8656C18.3876 24 18 24.448 18 25.0004C18 25.5524 18.3876 26 18.8656 26H32.1341C32.6124 26 33 25.5524 33 25.0004C33 24.448 32.6124 24 32.1341 24Z" fill="#7CBCB5"/>
<path fill-rule="evenodd" clip-rule="evenodd" d="M13.339 25.2622H8.66102V21.1753C8.66102 20.1129 9.48705 19.2482 10.5023 19.2482H11.4977C12.5129 19.2482 13.339 20.1129 13.339 21.1753V25.2622ZM10.9998 13.7384C11.994 13.7384 12.8024 14.5844 12.8024 15.6243C12.8024 16.6642 11.994 17.5101 10.9998 17.5101C10.006 17.5101 9.19762 16.6642 9.19762 15.6243C9.19762 14.5844 10.006 13.7384 10.9998 13.7384ZM13.4757 18.1537C14.0859 17.5001 14.4634 16.6079 14.4634 15.6243C14.4634 13.6259 12.9096 12 10.9998 12C9.09037 12 7.5366 13.6259 7.5366 15.6243C7.5366 16.6079 7.9144 17.5001 8.52431 18.1537C7.60479 18.815 7 19.9223 7 21.1753V26.1313C7 26.611 7.37171 27 7.83051 27H14.1695C14.6283 27 15 26.611 15 26.1313V21.1753C15 19.9223 14.3952 18.815 13.4757 18.1537Z" fill="#7CBCB5"/>
</svg>
