<svg width="32" height="32" viewBox="0 0 32 32" fill="none" xmlns="http://www.w3.org/2000/svg">
<path fill-rule="evenodd" clip-rule="evenodd" d="M7.3415 9.61666L11.1646 6.18743V25.6361H7.3415V9.61666ZM16.3291 25.6361H12.5061V6.44668L16.3291 10.7431V25.6361ZM21.4937 25.6361H17.6706V12.1653L21.4937 16.1809V25.6361ZM26.6585 25.6361H22.8352V16.1252L26.6585 10.7305V25.6361ZM6 26.3182C6 26.6947 6.30047 27 6.67049 27H11.8353H17.0001H22.1644H27.3293C27.6995 27 28 26.6947 28 26.3182V8.61723C28 8.32117 27.8123 8.05902 27.5353 7.96804C27.2594 7.87733 26.9556 7.9783 26.7847 8.21862L22.0889 14.8449L17.4909 10.0155L12.3328 4.21881C12.324 4.20882 12.3121 4.2033 12.3028 4.19383C12.277 4.16806 12.249 4.14624 12.219 4.12468C12.1945 4.1068 12.1699 4.08945 12.143 4.07525C12.1316 4.0692 12.1231 4.06 12.1112 4.05474C12.09 4.04501 12.067 4.04291 12.0453 4.03528C12.0166 4.02555 11.9889 4.01582 11.9592 4.0103C11.9237 4.00347 11.8886 4.00189 11.8524 4.0011C11.8234 4.00031 11.795 3.99873 11.7655 4.00189C11.7285 4.00583 11.6934 4.01582 11.6574 4.02581C11.6365 4.03186 11.6147 4.03186 11.5941 4.04001C11.5873 4.04264 11.5822 4.0479 11.5754 4.05079C11.5416 4.06552 11.5108 4.08655 11.4795 4.1068C11.4544 4.12258 11.4286 4.13599 11.4063 4.15518C11.4017 4.15886 11.396 4.16096 11.3916 4.16491L6.22677 8.79761C6.08249 8.92697 6 9.11313 6 9.30902V26.3182Z" fill="#7CBCB5"/>
<mask id="mask0" mask-type="alpha" maskUnits="userSpaceOnUse" x="5" y="0" width="24" height="11">
<path fill-rule="evenodd" clip-rule="evenodd" d="M5.23438 0.172607H28.8255V10.9377H5.23438V0.172607Z" fill="white"/>
</mask>
<g mask="url(#mask0)">
<path fill-rule="evenodd" clip-rule="evenodd" d="M11.6824 0.366117C11.4281 0.123161 11.0075 0.106661 10.7316 0.329769L5.46375 4.57649C5.18155 4.80414 5.15623 5.19631 5.40731 5.45242C5.65812 5.70829 6.09038 5.73149 6.37311 5.50336L11.1454 1.65599L20.6463 10.7441C20.7757 10.8682 20.9554 10.9378 21.1429 10.9378C21.1532 10.9378 21.1637 10.9376 21.1743 10.9374C21.3726 10.9292 21.5572 10.8429 21.6804 10.7013L26.81 4.79147L27.4839 6.91805C27.5881 7.24781 27.967 7.4396 28.3299 7.34323C28.6931 7.24877 28.9033 6.90538 28.7986 6.5761L27.7574 3.28877C27.7534 3.2749 27.7484 3.26103 27.7431 3.24764C27.7125 3.16992 27.6659 3.09986 27.607 3.04079V3.04055C27.6068 3.04031 27.6065 3.04031 27.606 3.03983C27.6057 3.03888 27.6055 3.03888 27.6055 3.03888C27.5728 3.00612 27.5358 2.9767 27.4965 2.95112C27.4963 2.95088 27.4957 2.95064 27.4955 2.95064C27.4942 2.94968 27.4944 2.94992 27.4944 2.94968C27.4934 2.94968 27.4939 2.94897 27.4931 2.94897C27.3937 2.88536 27.275 2.84542 27.1481 2.83681H27.1468H27.1466H27.145C27.1437 2.83657 27.1423 2.83657 27.141 2.83657H27.1408H27.1397C27.1389 2.83657 27.1384 2.83633 27.1384 2.83633H27.1368H27.1357H27.1342C27.1334 2.83633 27.1331 2.83657 27.1323 2.83586H27.1299L23.3575 2.67827C22.9843 2.67133 22.6599 2.9272 22.6425 3.2694C22.6422 3.2792 22.6417 3.28853 22.6417 3.29833C22.6417 3.62786 22.9278 3.90214 23.2944 3.91768L25.7385 4.01955L21.0946 9.36986L11.6824 0.366117Z" fill="#7CBCB5"/>
</g>
<mask id="mask1" mask-type="alpha" maskUnits="userSpaceOnUse" x="0" y="0" width="32" height="32">
<path fill-rule="evenodd" clip-rule="evenodd" d="M0 0.188721H31.8106V31.8999H0V0.188721Z" fill="white"/>
</mask>
<g mask="url(#mask1)">
<path fill-rule="evenodd" clip-rule="evenodd" d="M31.1305 30.5434H1.36105V0.866988C1.36105 0.492294 1.05652 0.188721 0.680656 0.188721C0.305049 0.188721 0 0.492294 0 0.866988V31.2217C0 31.5961 0.305049 31.8999 0.680656 31.8999H31.1305C31.5064 31.8999 31.8109 31.5961 31.8109 31.2217C31.8109 30.847 31.5064 30.5434 31.1305 30.5434Z" fill="#7CBCB5"/>
</g>
</svg>
