<svg width="38" height="30" viewBox="0 0 38 30" fill="none" xmlns="http://www.w3.org/2000/svg">
<mask id="mask0" mask-type="alpha" maskUnits="userSpaceOnUse" x="0" y="0" width="38" height="30">
<path fill-rule="evenodd" clip-rule="evenodd" d="M0 0H38V30H0V0Z" fill="white"/>
</mask>
<g mask="url(#mask0)">
<path fill-rule="evenodd" clip-rule="evenodd" d="M33.762 13.9658L24.3498 4.336L27.1142 1.50739L36.5265 11.1372L33.762 13.9658ZM32.2712 14.2065L31.7565 15.2037C31.1582 16.3626 30.4311 17.4609 29.603 18.487L26.2817 15.0887C26.4647 14.9642 26.6294 14.8124 26.7701 14.6364C27.5815 13.6216 27.3789 11.97 26.3094 10.8756L23.6704 8.17528C22.9296 7.41758 22.0831 6.78745 21.18 6.3039L24.023 5.7674L32.2712 14.2065ZM29.1678 21.6018C28.9186 21.8757 28.5968 21.9383 28.3707 21.9424C27.9188 21.9539 27.4483 21.7411 27.0834 21.3681L21.2306 15.3797C20.9922 15.1356 20.6057 15.1356 20.3676 15.3797C20.1291 15.6232 20.1291 16.0187 20.3676 16.2625L26.2205 22.2509C26.2217 22.2521 26.2229 22.2533 26.224 22.2545L27.5349 23.5954C27.8998 23.9687 28.1044 24.4487 28.0962 24.9123C28.0922 25.1436 28.031 25.4728 27.7631 25.728C27.2712 26.1968 26.3094 26.0346 25.6634 25.3737L25.2395 24.9399L18.563 18.1089C18.3245 17.865 17.9379 17.865 17.7001 18.1089C17.4616 18.3527 17.4616 18.7481 17.7001 18.9917L24.3766 25.8228C24.7412 26.1961 24.9459 26.676 24.9379 27.1394C24.9339 27.3709 24.8727 27.7002 24.605 27.9553C24.1129 28.4242 23.1512 28.2617 22.5052 27.601L20.4246 25.4723L15.8952 20.8383C15.6567 20.5945 15.2702 20.5945 15.0321 20.8383C14.7938 21.0819 14.7938 21.4773 15.0321 21.7212L19.5617 26.3552C19.9263 26.7285 20.1312 27.2087 20.123 27.672C20.119 27.9033 20.0581 28.2326 19.7901 28.4877C19.2979 28.9568 18.3365 28.7944 17.6905 28.1334L14.0965 24.4566C14.0965 24.4566 14.0965 24.4564 14.0963 24.4561H14.096L9.6321 19.889C8.2681 18.4937 7.12806 16.9172 6.24374 15.2037L5.72901 14.2065L13.9772 5.7674L18.3275 6.58815C19.9604 6.896 21.5512 7.77308 22.8072 9.05813L25.4465 11.7587C26.0676 12.3941 26.2377 13.3302 25.8255 13.8455C25.6903 14.0147 25.5286 14.1066 25.3757 14.1618L21.5154 10.2125C21.2771 9.96867 20.8906 9.96867 20.6525 10.2125C20.414 10.4561 20.414 10.8515 20.6525 11.0953L24.7518 15.2894L28.8217 19.4534C29.4677 20.1143 29.626 21.098 29.1678 21.6018ZM13.3952 27.9553C13.1273 27.7002 13.0663 27.3709 13.0621 27.1394C13.0541 26.676 13.2588 26.1961 13.6234 25.8228L13.6648 25.7807L15.4676 27.6251C14.8223 28.2641 13.8808 28.4182 13.3952 27.9553ZM12.3366 25.3737C11.6903 26.0346 10.7286 26.1963 10.2369 25.728C9.96898 25.4728 9.90805 25.1436 9.90381 24.9123C9.89558 24.4487 10.1005 23.9687 10.4651 23.5954L10.997 23.0515L12.8017 24.8978L12.7607 24.9399L12.3366 25.3737ZM8.59039 20.5822C8.65038 20.645 8.70825 20.7098 8.76919 20.7719L9.8937 21.9226C9.4813 21.9905 9.08866 21.8836 8.83223 21.6018C8.60286 21.3495 8.52499 20.9784 8.59039 20.5822ZM1.47351 11.1372L10.8858 1.50739L13.6505 4.336L4.23797 13.9658L1.47351 11.1372ZM27.5459 0.182866C27.3076 -0.0609552 26.9209 -0.0609552 26.6828 0.182866L23.0552 3.89457C22.8425 4.11192 22.8209 4.44937 22.9879 4.69295L19.4513 5.36015C19.2998 5.38855 19.1464 5.42609 18.9935 5.4634C18.8456 5.4273 18.6978 5.38807 18.5489 5.36015L15.0123 4.69295C15.1791 4.44937 15.1575 4.11192 14.9448 3.89457L11.3172 0.182866C11.0791 -0.0609552 10.6924 -0.0609552 10.4543 0.182866L0.17891 10.6958C-0.0596367 10.9396 -0.0596367 11.3348 0.17891 11.5787L3.80652 15.2901C3.92555 15.4122 4.082 15.4733 4.23797 15.4733C4.39418 15.4733 4.55062 15.4122 4.66943 15.2901L4.82563 15.1305L5.1644 15.7869C5.85228 17.1194 6.68625 18.3724 7.65056 19.5299C7.16758 20.563 7.26639 21.7132 7.93898 22.4526C8.28833 22.8363 8.74566 23.07 9.24204 23.1535C8.87364 23.6888 8.67273 24.3141 8.68355 24.9346C8.69532 25.6038 8.95151 26.2101 9.40531 26.6421C10.0334 27.2402 10.962 27.3818 11.8414 27.1026C11.8414 27.1223 11.8414 27.142 11.8418 27.162C11.8536 27.8306 12.1098 28.4372 12.5636 28.8692C12.9861 29.2717 13.5446 29.4676 14.133 29.4676C14.8928 29.4676 15.7016 29.1393 16.3312 28.5087L16.8273 29.0165C17.4604 29.6642 18.2819 30 19.0523 30C19.6405 30 20.1992 29.8041 20.6217 29.4016C20.9739 29.0664 21.207 28.6261 21.2992 28.133L21.6422 28.4839C22.7583 29.626 24.4603 29.7985 25.4366 28.8692C25.8902 28.4372 26.1464 27.8306 26.1582 27.162C26.1586 27.142 26.1586 27.1223 26.1586 27.1026C27.039 27.382 27.9673 27.2402 28.5949 26.6421C29.0485 26.2101 29.3047 25.6038 29.3167 24.9346C29.3273 24.3156 29.1297 23.6907 28.7629 23.1564C29.2682 23.0705 29.7204 22.8271 30.0613 22.4526C30.7414 21.705 30.8174 20.5415 30.3447 19.5246C31.3097 18.3652 32.1512 17.1129 32.8356 15.7869L33.1744 15.1305L33.3306 15.2901C33.4496 15.4122 33.6058 15.4733 33.762 15.4733C33.9182 15.4733 34.0744 15.4122 34.1935 15.2901L37.8211 11.5787C38.0596 11.3348 38.0596 10.9396 37.8211 10.6958L27.5459 0.182866Z" fill="#7CBCB5"/>
</g>
</svg>
