<svg width="42" height="47" viewBox="0 0 42 47" fill="none" xmlns="http://www.w3.org/2000/svg">
<path d="M3.5 36V46" stroke="#7CBCB5" stroke-width="2" stroke-linejoin="round"/>
<path fill-rule="evenodd" clip-rule="evenodd" d="M19 8.50037C19 12.6422 15.6422 16 11.5004 16C7.35776 16 4 12.6422 4 8.50037C4 4.35703 7.35776 1 11.5004 1C15.6422 1 19 4.35703 19 8.50037Z" stroke="#7CBCB5" stroke-width="2" stroke-linejoin="round"/>
<path fill-rule="evenodd" clip-rule="evenodd" d="M34.3578 25.9391C35.1606 26.6659 36.146 27 37.0865 27C38.0115 27 38.8931 26.6764 39.5117 26.0877C39.9823 25.6356 40.274 25.0461 40.4353 24.7699C41.7588 22.502 40.5634 21.5022 38.8356 19.9217C37.7383 18.9179 36.6954 18 35.7416 18C35.3631 18 34.9993 18.1429 34.6494 18.4802C34.3637 18.7613 34.2915 18.9195 33.8518 19.6632C32.6572 21.6901 32.6256 24.3627 34.3578 25.9391Z" stroke="#7CBCB5" stroke-width="2" stroke-linejoin="round"/>
<path fill-rule="evenodd" clip-rule="evenodd" d="M27.5008 24C31.643 24 35 20.8681 35 16.9996C35 13.1333 31.643 10 27.5008 10C23.3585 10 20 13.1333 20 16.9996C20 20.8681 23.3585 24 27.5008 24Z" stroke="#7CBCB5" stroke-width="2" stroke-linejoin="round"/>
<path d="M37.5 46V36" stroke="#7CBCB5" stroke-width="2" stroke-linejoin="round"/>
<path d="M21 41V27.7924C21 26.3309 21.4847 23.9224 23 23" stroke="#7CBCB5" stroke-width="2" stroke-linejoin="round"/>
<path d="M21 21.0626C19.4577 19.7566 16.3342 19 13.6143 19H8.80454C4.49476 19 1 21.7515 1 26.0409C1.14839 32.4873 4.48452 44.1308 17.3912 45C19.014 45 20.3648 44.3932 20.6214 42.859C20.9189 41.0718 20.3575 39.3022 18.5717 39.1408C12.6984 38.6096 10.1152 34.5542 8.98363 31.0061" stroke="#7CBCB5" stroke-width="2" stroke-linecap="round" stroke-linejoin="round"/>
<path d="M21 41C21 41 21.5522 40.2766 22.7461 40.1601C28.0485 39.6431 30.98 35.6084 32 32" stroke="#7CBCB5" stroke-width="2" stroke-linejoin="round"/>
<path d="M39.9958 26C40.1735 34.5739 34.7545 45.51 23.1353 45.9978C22.3821 45.9978 21.0171 46.1166 20 44.6061" stroke="#7CBCB5" stroke-width="2" stroke-linejoin="round"/>
</svg>
