<svg width="52" height="42" viewBox="0 0 52 42" fill="none" xmlns="http://www.w3.org/2000/svg">
<path fill-rule="evenodd" clip-rule="evenodd" d="M2.81107 39.1921V2.8987H30.4361L49.1743 21.9199V39.1921H2.81107ZM49.1743 10.8472L41.3446 2.8987H49.1743V10.8472ZM33.7143 2.8987H38.0664L49.1743 14.1747V18.5923L33.7143 2.8987ZM50.3335 0.54541H1.65187C1.012 0.54541 0.492676 1.07255 0.492676 1.72206V40.3688C0.492676 41.0183 1.012 41.5454 1.65187 41.5454H50.3335C50.9743 41.5454 51.4927 41.0183 51.4927 40.3688V1.72206C51.4927 1.07255 50.9743 0.54541 50.3335 0.54541Z" fill="#7CBCB5"/>
<path fill-rule="evenodd" clip-rule="evenodd" d="M43.2541 29.2003C43.2541 28.2884 43.3951 27.8619 43.5596 27.3687C43.7533 26.7842 43.9733 26.1216 43.9733 24.8675C43.9733 23.6134 43.7533 22.9508 43.5596 22.3672C43.3951 21.874 43.2541 21.4475 43.2541 20.5365C43.2541 19.9301 42.7449 19.4395 42.1176 19.4395C41.4902 19.4395 40.981 19.9301 40.981 20.5365C40.981 21.7915 41.2011 22.4532 41.3947 23.0368C41.5593 23.53 41.7002 23.9557 41.7002 24.8675C41.7002 25.7794 41.5584 26.205 41.3947 26.6991C41.2001 27.2827 40.981 27.9453 40.981 29.2003C40.981 30.3605 41.4875 31.2741 41.8566 31.9419C42.0057 32.2105 42.2303 32.6177 42.2349 32.7248C42.2349 32.7248 42.1976 32.7994 42.0112 32.9336C41.1501 33.5567 40.8437 33.4146 39.8254 32.945C39.0007 32.5642 37.9742 32.0894 36.4857 32.0894C34.8527 32.0894 33.9871 32.2903 33.2234 32.4676C32.5196 32.63 31.8559 32.7836 30.492 32.7836C29.1291 32.7836 28.4653 32.63 27.7625 32.4676C26.9996 32.2903 26.134 32.0894 24.502 32.0894C22.869 32.0894 22.0034 32.2903 21.2396 32.4676C20.5358 32.63 19.8721 32.7836 18.5073 32.7836C17.1417 32.7836 16.477 32.63 15.7732 32.4676C15.0086 32.2903 14.1421 32.0894 12.5082 32.0894C11.017 32.0894 9.99048 32.5633 9.16489 32.945C8.14563 33.4154 7.8374 33.5567 6.97362 32.9336C6.81541 32.8187 6.76449 32.7485 6.75813 32.7485H6.75722C6.76267 32.608 6.98362 32.2105 7.13001 31.9454C7.49916 31.2785 8.00561 30.3649 8.00561 29.2064C8.00561 27.9532 7.78466 27.2915 7.59008 26.7079C7.42733 26.2155 7.28549 25.7899 7.28549 24.8807C7.28549 23.9706 7.42733 23.545 7.59099 23.0526C7.78466 22.469 8.00561 21.8073 8.00561 20.5541C8.00561 19.2999 7.78466 18.6374 7.59099 18.0537C7.42733 17.5605 7.28549 17.134 7.28549 16.2239C7.28549 15.3121 7.42733 14.8847 7.59099 14.3915C7.78466 13.807 8.00561 13.1453 8.00561 11.8903C8.00561 10.7301 7.49916 9.81648 7.1291 9.14862C6.97998 8.88007 6.7554 8.47374 6.75085 8.36667C6.75176 8.36579 6.78904 8.29119 6.97453 8.15604C7.83558 7.53381 8.1429 7.67599 9.15943 8.14639C9.98411 8.52639 11.0106 9.0003 12.5 9.0003C14.133 9.0003 14.9986 8.80021 15.7623 8.62381C16.4661 8.46057 17.1298 8.30611 18.4937 8.30611C19.8566 8.30611 20.5204 8.46057 21.2232 8.62381C21.9861 8.80021 22.8517 9.0003 24.4829 9.0003C26.1159 9.0003 26.9824 8.80021 27.7461 8.62381C28.2007 8.51849 28.6317 8.41845 29.2318 8.36052C29.8574 8.29997 30.3129 7.76199 30.2502 7.15995C30.1874 6.55615 29.6273 6.11735 29.0054 6.17703C28.2517 6.25075 27.7252 6.37186 27.2151 6.49033C26.5123 6.65357 25.8476 6.80627 24.4829 6.80627C23.1199 6.80627 22.4562 6.65357 21.7542 6.49033C20.9905 6.31306 20.1258 6.11208 18.4937 6.11208C16.8607 6.11208 15.996 6.31306 15.2313 6.49033C14.5285 6.65357 13.8638 6.80627 12.5 6.80627C11.5262 6.80627 10.8533 6.4956 10.1414 6.1665C8.9985 5.63905 7.57463 4.98172 5.61158 6.40082C3.76764 7.73391 4.65051 9.32677 5.12422 10.1833C5.437 10.7476 5.7325 11.2803 5.7325 11.8903C5.7325 12.8012 5.58975 13.2286 5.42609 13.7219C5.23242 14.3063 5.01239 14.9689 5.01239 16.2239C5.01239 17.478 5.23242 18.1397 5.42609 18.7234C5.58975 19.2175 5.7325 19.6431 5.7325 20.5541C5.7325 21.4641 5.59066 21.8889 5.42609 22.3812C5.23242 22.9657 5.01239 23.6266 5.01239 24.8807C5.01239 26.1339 5.23242 26.7956 5.42609 27.3792C5.59066 27.8716 5.7325 28.2972 5.7325 29.2064C5.7325 29.8155 5.43791 30.3482 5.12422 30.9107C4.65051 31.7673 3.76855 33.3602 5.61339 34.6906C7.57826 36.1088 9.00213 35.4515 10.146 34.9232C10.8597 34.5941 11.5335 34.2834 12.5082 34.2834C13.8738 34.2834 14.5385 34.4379 15.2422 34.6002C16.0069 34.7775 16.8725 34.9776 18.5073 34.9776C20.1412 34.9776 21.0059 34.7775 21.7706 34.6002C22.4743 34.4379 23.1381 34.2834 24.502 34.2834C25.8649 34.2834 26.5286 34.4379 27.2315 34.6002C27.9953 34.7775 28.8599 34.9776 30.492 34.9776C32.125 34.9776 32.9906 34.7775 33.7544 34.6002C34.4572 34.4379 35.1219 34.2834 36.4857 34.2834C37.4586 34.2834 38.1315 34.5941 38.8443 34.9232C39.4753 35.2154 40.1909 35.5454 41.0347 35.5454C41.7211 35.5454 42.4931 35.326 43.3741 34.6897C45.2172 33.3558 44.3352 31.7629 43.8615 30.9072C43.5487 30.3438 43.2541 29.8102 43.2541 29.2003Z" fill="#7CBCB5"/>
<path fill-rule="evenodd" clip-rule="evenodd" d="M17.4927 13.5454C17.4927 14.0974 17.9851 14.5454 18.5939 14.5454H33.3915C34.0002 14.5454 34.4927 14.0974 34.4927 13.5454C34.4927 12.9934 34.0002 12.5454 33.3915 12.5454H18.5939C17.9851 12.5454 17.4927 12.9934 17.4927 13.5454Z" fill="#7CBCB5"/>
<path fill-rule="evenodd" clip-rule="evenodd" d="M30.4927 20.5454C30.4927 19.9934 29.9774 19.5454 29.3426 19.5454H22.6427C22.007 19.5454 21.4927 19.9934 21.4927 20.5454C21.4927 21.0974 22.007 21.5454 22.6427 21.5454H29.3426C29.9774 21.5454 30.4927 21.0974 30.4927 20.5454Z" fill="#7CBCB5"/>
<path fill-rule="evenodd" clip-rule="evenodd" d="M22.4927 26.5454C22.4927 27.6504 23.3877 28.5454 24.4927 28.5454C25.5964 28.5454 26.4927 27.6504 26.4927 26.5454C26.4927 25.4405 25.5964 24.5454 24.4927 24.5454C23.3877 24.5454 22.4927 25.4405 22.4927 26.5454Z" fill="#7CBCB5"/>
</svg>
