<svg width="39" height="50" viewBox="0 0 39 50" fill="none" xmlns="http://www.w3.org/2000/svg">
<mask id="mask0" mask-type="alpha" maskUnits="userSpaceOnUse" x="0" y="0" width="39" height="50">
<path fill-rule="evenodd" clip-rule="evenodd" d="M0 0.621582H38.3523V49.9995H0V0.621582Z" fill="white"/>
</mask>
<g mask="url(#mask0)">
<path fill-rule="evenodd" clip-rule="evenodd" d="M30.8702 41.9289C30.3961 41.7978 29.8935 41.9987 29.6447 42.4202L27.2354 46.4892L22.5996 35.0418C22.8674 34.7487 23.1387 34.4875 23.312 34.4409C23.6292 34.3573 24.4161 34.6401 24.9907 34.8461C26.1105 35.2495 27.3793 35.7056 28.4617 35.0823C29.5572 34.4513 29.7947 33.1185 30.0035 31.9435C30.0833 31.4935 30.1864 30.9176 30.3285 30.5711L35.4419 43.2021L30.8702 41.9289ZM19.1763 35.4004C18.8963 35.4004 18.2359 34.6176 17.8815 34.197C17.2228 33.4168 16.5416 32.609 15.5987 32.359C15.3707 32.2978 15.1385 32.272 14.9053 32.272C14.1487 32.272 13.3765 32.5495 12.6243 32.8202C12.1606 32.9866 11.1943 33.334 10.975 33.2168C10.7523 33.0883 10.5694 32.0616 10.4819 31.5676C10.3016 30.5513 10.1144 29.4995 9.41067 28.8004C8.70866 28.1013 7.65133 27.9151 6.62866 27.7357C6.1338 27.6487 5.10073 27.4676 4.9716 27.2452C4.8546 27.0263 5.203 26.0659 5.37113 25.6047C5.72647 24.6263 6.09393 23.6142 5.83393 22.6461C5.58173 21.7082 4.77053 21.0306 3.9862 20.3754C3.56327 20.0228 2.7772 19.3668 2.7772 19.0883C2.7772 18.8099 3.56327 18.153 3.98533 17.8004C4.77053 17.1452 5.58173 16.4676 5.83393 15.5306C6.0948 14.5616 5.72647 13.5495 5.372 12.5711C5.203 12.1099 4.8546 11.1495 4.9716 10.9306C5.10073 10.709 6.1338 10.5271 6.62953 10.4401C7.65133 10.2607 8.70866 10.0745 9.4124 9.37454C10.1153 8.67627 10.3016 7.62454 10.4827 6.6073C10.5703 6.1142 10.7523 5.08747 10.975 4.95902C11.1969 4.84265 12.1606 5.1892 12.6243 5.35644C13.6088 5.70989 14.6263 6.07627 15.5995 5.81678C16.5425 5.56592 17.2228 4.75989 17.8815 3.97971C18.2359 3.55816 18.8963 2.77627 19.1763 2.77627C19.4562 2.77627 20.1166 3.55816 20.4711 3.97971C21.1297 4.75989 21.8101 5.56592 22.753 5.81678C23.7271 6.07627 24.7437 5.70989 25.7274 5.35644C26.1919 5.19006 27.1574 4.84265 27.3775 4.95902C27.6003 5.08834 27.7823 6.1142 27.8698 6.60816C28.0509 7.62454 28.2373 8.67627 28.9401 9.3754C29.6439 10.0754 30.7012 10.2607 31.7221 10.4409C32.2196 10.5271 33.2509 10.709 33.3801 10.9306C33.4971 11.1504 33.1487 12.1099 32.9814 12.5711C32.6252 13.5495 32.2577 14.5625 32.5177 15.5306C32.7691 16.4685 33.5811 17.1452 34.3655 17.8004C34.7884 18.153 35.5753 18.8099 35.5753 19.0883C35.5753 19.3668 34.7884 20.0237 34.3655 20.3763C33.5811 21.0314 32.7691 21.7082 32.5177 22.6461C32.2577 23.6142 32.6252 24.6263 32.9814 25.6047C33.1487 26.0668 33.4971 27.0263 33.3801 27.2461C33.2509 27.4676 32.2187 27.6495 31.7221 27.7357C30.7003 27.9159 29.643 28.1013 28.9401 28.8004C28.2373 29.4995 28.0501 30.5513 27.8698 31.5676C27.7823 32.0616 27.5994 33.0883 27.3767 33.2168C27.1574 33.3332 26.1919 32.9866 25.7274 32.8202C24.7437 32.4659 23.7254 32.0995 22.753 32.359C21.8101 32.609 21.1289 33.4168 20.4702 34.197C20.1157 34.6176 19.4562 35.4004 19.1763 35.4004ZM11.1171 46.4892L8.7078 42.4202C8.45907 41.9987 7.9564 41.7978 7.48233 41.9289L2.9098 43.2021L8.02313 30.5711C8.16613 30.9176 8.2684 31.4935 8.34813 31.9426C8.557 33.1185 8.79447 34.4513 9.88993 35.0823C10.9724 35.7047 12.2412 35.2487 13.3609 34.8461C13.9355 34.6401 14.7251 34.3582 15.0397 34.4409C15.2139 34.4875 15.486 34.7487 15.7521 35.0418L11.1171 46.4892ZM38.2733 44.4263L32.3565 29.8116C33.4711 29.6116 34.6671 29.3375 35.2555 28.3254C35.8813 27.2487 35.4228 25.9857 35.0181 24.8728C34.8109 24.3004 34.5267 23.5176 34.6107 23.2021C34.6861 22.922 35.3309 22.3832 35.7582 22.0271C36.6881 21.2513 37.742 20.3711 37.742 19.0883C37.742 17.8047 36.6881 16.9254 35.7591 16.1495C35.3309 15.7935 34.6861 15.2547 34.6107 14.9737C34.5267 14.659 34.8109 13.8754 35.0189 13.3039C35.4237 12.1909 35.8821 10.928 35.2564 9.85127C34.6211 8.76075 33.2813 8.52627 32.1 8.31851C31.5055 8.2142 30.6934 8.07109 30.4724 7.85213C30.2523 7.6323 30.1084 6.82368 30.0035 6.23316C29.7947 5.0573 29.5572 3.72454 28.4626 3.09437C27.3793 2.47109 26.1105 2.92713 24.9907 3.32971C24.4161 3.53661 23.6292 3.81765 23.312 3.73489C23.0303 3.65989 22.4887 3.01765 22.1307 2.59351C21.3507 1.66937 20.4659 0.621094 19.1763 0.621094C17.8858 0.621094 17.0018 1.66937 16.2218 2.59351C15.863 3.01765 15.3222 3.65989 15.0397 3.73489C14.7225 3.81765 13.9355 3.53661 13.3609 3.32971C12.2412 2.92713 10.9724 2.47109 9.88993 3.09351C8.79447 3.72454 8.55787 5.0573 8.349 6.23316C8.24413 6.82282 8.10027 7.6323 7.88013 7.85127C7.65913 8.07109 6.8462 8.21334 6.25253 8.31765C5.0704 8.5254 3.7314 8.76075 3.097 9.85127C2.46953 10.928 2.92887 12.1901 3.3336 13.3039C3.54073 13.8754 3.82587 14.6582 3.74093 14.9728C3.66553 15.2547 3.02073 15.7935 2.59433 16.1495C1.66353 16.9245 0.610532 17.8047 0.610532 19.0883C0.610532 20.3711 1.66353 21.2513 2.59433 22.0263C3.02073 22.3832 3.66553 22.9211 3.74093 23.2021C3.82587 23.5176 3.54073 24.3004 3.3336 24.872C2.92887 25.9857 2.46953 27.2478 3.097 28.3245C3.68547 29.3375 4.8806 29.6116 5.996 29.8116L0.0783987 44.4263C-0.075868 44.8082 0.00126535 45.2426 0.276865 45.5478C0.551599 45.8539 0.977999 45.9763 1.37493 45.8668L7.26393 44.228L10.3666 49.4685C10.5616 49.7995 10.9187 49.9995 11.3 49.9995C11.3269 49.9995 11.3537 49.9987 11.3806 49.9961C11.7923 49.9659 12.1502 49.7056 12.3053 49.3245L17.3753 36.8013C17.8884 37.2375 18.4691 37.5556 19.1763 37.5556C19.8817 37.5556 20.4641 37.2375 20.9763 36.8013L26.0472 49.3245C26.2006 49.7056 26.5594 49.9659 26.9711 49.9961C26.9979 49.9987 27.0248 49.9995 27.0525 49.9995C27.433 49.9995 27.7892 49.7995 27.9851 49.4685L31.0886 44.228L36.9767 45.8668C37.3745 45.9771 37.8001 45.8547 38.0757 45.5478C38.3513 45.2426 38.4284 44.8082 38.2733 44.4263Z" fill="#7CBCB5"/>
</g>
<path fill-rule="evenodd" clip-rule="evenodd" d="M20.0004 24.8564C16.7706 24.8564 14.1435 22.2292 14.1435 19C14.1435 15.77 16.7706 13.1436 20.0004 13.1436C23.2286 13.1436 25.8565 15.77 25.8565 19C25.8565 22.2292 23.2286 24.8564 20.0004 24.8564ZM28 19C28 14.5884 24.4109 11 20.0004 11C15.5891 11 12 14.5884 12 19C12 23.4107 15.5891 27 20.0004 27C24.4109 27 28 23.4107 28 19Z" fill="#7CBCB5"/>
</svg>
