<svg width="54" height="44" viewBox="0 0 54 44" fill="none" xmlns="http://www.w3.org/2000/svg">
<mask id="mask0" mask-type="alpha" maskUnits="userSpaceOnUse" x="0" y="0" width="54" height="44">
<path fill-rule="evenodd" clip-rule="evenodd" d="M0 0H54V44H0V0Z" fill="white"/>
</mask>
<g mask="url(#mask0)">
<path fill-rule="evenodd" clip-rule="evenodd" d="M29.913 37.4103L36.7088 14.3299H49.9186L29.913 37.4103ZM17.2909 14.3299L24.0868 37.4103L4.08216 14.3299H17.2909ZM9.9487 3.4685L15.7997 11.7915H3.8162L9.9487 3.4685ZM44.051 3.4685L50.1846 11.7915H38.2L44.051 3.4685ZM34.0172 14.3299L27.0009 38.1576L19.9836 14.3299H34.0172ZM29.5404 2.53842H41.5622L35.7091 10.8644L29.5404 2.53842ZM18.2916 10.8644L12.4375 2.53842H24.4604L18.2916 10.8644ZM27.0009 3.42789L33.1976 11.7915H20.8032L27.0009 3.42789ZM53.9876 13.2678C53.9969 13.215 53.9949 13.1612 53.9969 13.1074C53.999 13.0444 54.0031 12.9815 53.9959 12.9196C53.9907 12.8668 53.9752 12.817 53.9628 12.7652C53.9462 12.7013 53.9307 12.6393 53.9059 12.5774C53.8986 12.5611 53.8986 12.5439 53.8903 12.5276C53.8738 12.4921 53.8458 12.4657 53.8262 12.4312C53.8034 12.3936 53.791 12.353 53.7651 12.3164L45.0745 0.524946C44.9948 0.417317 44.8965 0.329995 44.7889 0.253842C44.7785 0.244704 44.7733 0.232519 44.7609 0.224397C44.7464 0.215258 44.7309 0.214243 44.7164 0.205105C44.5891 0.125906 44.4525 0.0649836 44.3046 0.0324918C44.2839 0.0284303 44.2642 0.0284303 44.2445 0.0253842C44.1721 0.0131998 44.0997 0 44.0262 0H9.97354C9.90006 0 9.82762 0.0131998 9.75622 0.0253842C9.73656 0.0284303 9.71586 0.0284303 9.69516 0.0324918C9.54718 0.0649836 9.41058 0.125906 9.28329 0.205105C9.26984 0.214243 9.25328 0.215258 9.23983 0.224397C9.22741 0.232519 9.22224 0.244704 9.21085 0.253842C9.10427 0.329995 9.00492 0.417317 8.92627 0.524946L0.235632 12.3164C0.208726 12.353 0.196308 12.3936 0.173542 12.4312C0.154914 12.4657 0.125939 12.4921 0.109381 12.5276C0.102137 12.5439 0.101102 12.5611 0.0948934 12.5774C0.0690222 12.6393 0.0534995 12.7013 0.0379768 12.7652C0.0255586 12.817 0.010036 12.8668 0.00486172 12.9196C-0.00341705 12.9815 0.000722338 13.0444 0.00382688 13.1074C0.00486172 13.1612 0.00382688 13.215 0.0131405 13.2678C0.0224541 13.3287 0.0441859 13.3866 0.063848 13.4455C0.0814404 13.4993 0.0959282 13.5531 0.120765 13.6039C0.125939 13.6151 0.125939 13.6273 0.132148 13.6384C0.158019 13.6872 0.195273 13.7268 0.227354 13.7715C0.25219 13.808 0.268748 13.8486 0.298758 13.8831L26.0147 43.5532C26.0592 43.604 26.112 43.6467 26.1616 43.6903C26.1751 43.7005 26.1854 43.7137 26.1999 43.7238C26.2082 43.7309 26.2165 43.7391 26.2258 43.7462C26.233 43.7512 26.2413 43.7553 26.2486 43.7594C26.3417 43.8243 26.4421 43.8741 26.5487 43.9127C26.5725 43.9218 26.5963 43.932 26.6211 43.9401C26.6284 43.9421 26.6335 43.9472 26.6408 43.9492C26.6522 43.9533 26.6635 43.9513 26.6749 43.9543C26.7784 43.9817 26.885 43.998 26.9937 43.999C26.9957 43.999 26.9978 44 26.9999 44H27.0009C27.0019 44 27.005 43.999 27.0061 43.999C27.1158 43.998 27.2213 43.9817 27.3258 43.9543C27.3372 43.9513 27.3476 43.9533 27.359 43.9492C27.3672 43.9472 27.3724 43.9421 27.3797 43.9401C27.4045 43.932 27.4283 43.9218 27.4521 43.9127C27.5576 43.8741 27.6601 43.8243 27.7522 43.7594C27.7594 43.7543 27.7677 43.7512 27.775 43.7462C27.7832 43.7391 27.7915 43.7309 27.8008 43.7238C27.8153 43.7137 27.8246 43.7005 27.8381 43.6903C27.8898 43.6467 27.9416 43.604 27.985 43.5532L53.701 13.8831C53.731 13.8486 53.7475 13.808 53.7734 13.7715C53.8045 13.7268 53.8427 13.6872 53.8686 13.6384C53.8738 13.6273 53.8748 13.6151 53.88 13.6039C53.9048 13.5531 53.9193 13.4993 53.9369 13.4455C53.9555 13.3866 53.9773 13.3287 53.9876 13.2678Z" fill="#7CBCB5"/>
</g>
</svg>
