<svg width="26" height="25" viewBox="0 0 26 25" fill="none" xmlns="http://www.w3.org/2000/svg">
<path fill-rule="evenodd" clip-rule="evenodd" d="M19.5 12.2553C17.4245 12.2553 16.095 13.2864 15.0175 14.8548L16.8125 16.0479C15.4175 15.0618 14.2755 14.2157 12.6905 14.2157C9.791 14.2157 7 16.3332 7 16.3332C7 16.3332 10.1665 14.131 10.1665 12.0106C10.1665 9.96413 9.1665 8.17747 9.1665 6.05657C9.1665 6.05657 13.9165 7.60638 14.5 6.54594C14.9165 5.7884 15.735 3.86913 15 2.87572C14.2985 1.92783 11.9965 1 9.833 1C6.1665 1 1 12.9076 1 18.1277C1 23.3477 10.5 24 19 24C22.1665 24 25 21.3707 25 18.1277C25 14.8847 22.375 12.2553 19.5 12.2553Z" stroke="#7CBCB5" stroke-width="1.5" stroke-linecap="round" stroke-linejoin="round"/>
<path fill-rule="evenodd" clip-rule="evenodd" d="M14.9917 5C14.9049 4.98587 12.8543 4.63812 12.2224 4.15846C12.0691 4.0424 11.9943 3.90621 12.0003 3.75503C12.0151 3.36745 12.5469 3.01499 12.5695 3L12.5968 3.03512C12.5912 3.03854 12.0603 3.39058 12.0465 3.75675C12.041 3.89379 12.1102 4.01799 12.251 4.12505C12.8742 4.59829 14.9788 4.9546 15 4.95803L14.9917 5Z" stroke="#7CBCB5" stroke-width="1.5" stroke-linecap="round" stroke-linejoin="round"/>
</svg>
