<svg width="26" height="21" viewBox="0 0 26 21" fill="none" xmlns="http://www.w3.org/2000/svg">
<path fill-rule="evenodd" clip-rule="evenodd" d="M13.2542 19.9317C13.4066 20.0228 13.5934 20.0228 13.7458 19.9317C15.4128 18.9344 25 12.9496 25 7.16319C25 3.75944 22.2275 1 18.8077 1C16.7967 1 15.0142 1.95765 13.8838 3.43657C13.6888 3.69219 13.3117 3.69219 13.1162 3.43657C11.9863 1.95765 10.2033 1 8.19275 1C4.77246 1 2 3.75944 2 7.16319C2 12.9496 11.5872 18.9344 13.2542 19.9317Z" stroke="#7CBCB5" stroke-width="1.3" stroke-linecap="round" stroke-linejoin="round"/>
<path fill-rule="evenodd" clip-rule="evenodd" d="M13 15C12.6525 15 12.3275 12.8644 11.8715 9.60576C11.5725 7.4712 11.234 5.05236 11 5.05236C10.7865 5.05236 10.5335 6.52984 10.289 7.95864C9.9375 10.0105 9.5395 12.3361 9 12.3361C8.507 12.3361 8.1975 11.3529 7.8975 10.4026C7.635 9.56702 7.363 8.70367 7 8.70367C6.239 8.70367 6.027 10.1733 6.0245 10.1885L6.0215 10.211H1V10.1581H5.9785C6.009 9.96178 6.24 8.65131 7 8.65131C7.3995 8.65131 7.6645 9.49372 7.9455 10.3859C8.239 11.3188 8.543 12.2843 9 12.2843C9.4975 12.2843 9.909 9.88063 10.2395 7.94869C10.5525 6.12042 10.757 5 11 5C11.2635 5 11.5215 6.74712 11.9205 9.59843C12.2545 11.9817 12.6695 14.9476 13 14.9476C13.3185 14.9476 13.68 13.4162 13.9995 12.0649C14.342 10.6141 14.666 9.24398 15 9.24398C15.32 9.24398 15.6205 9.79633 15.939 10.3812C16.276 10.9984 16.6245 11.6382 17 11.6382C17.7205 11.6382 17.973 10.1942 17.9755 10.1801L17.979 10.1581H22V10.211H18.021C17.9855 10.4021 17.721 11.6906 17 11.6906C16.595 11.6906 16.2395 11.0377 15.896 10.4068C15.5845 9.8356 15.291 9.29581 15 9.29581C14.705 9.29581 14.356 10.7738 14.048 12.0775C13.693 13.5806 13.3575 15 13 15Z" stroke="#7CBCB5" stroke-width="1.3" stroke-linecap="round" stroke-linejoin="round"/>
</svg>
