<svg width="23" height="25" viewBox="0 0 23 25" fill="none" xmlns="http://www.w3.org/2000/svg">
<path fill-rule="evenodd" clip-rule="evenodd" d="M11.5 7.99026C12.2826 7.2319 14.0729 6 15.7957 6C18.9055 6 22 8.60844 22 13.5786C22 19.0248 18.0499 24 14.1246 24C13.1303 24 12.375 23.2431 11.5 23.2431C10.625 23.2431 9.86924 24 8.87488 24C4.94962 24 1 19.0248 1 13.5786C1 8.60844 4.09446 6 7.20434 6C8.92708 6 10.7174 7.2319 11.5 7.99026Z" stroke="#7CBCB5" stroke-width="1.4" stroke-linecap="round" stroke-linejoin="round"/>
<path fill-rule="evenodd" clip-rule="evenodd" d="M3.04255 13H3C3 10.2516 4.55496 9 6 9V9.03954C4.57535 9.03954 3.04255 10.2791 3.04255 13Z" stroke="#7CBCB5" stroke-width="1.4" stroke-linecap="round" stroke-linejoin="round"/>
<path fill-rule="evenodd" clip-rule="evenodd" d="M10 6H9.9668C9.9668 3.81272 8.18726 2.03332 6 2.03332V2C8.20593 2 10 3.79432 10 6Z" stroke="#7CBCB5" stroke-width="1.4" stroke-linecap="round" stroke-linejoin="round"/>
<path fill-rule="evenodd" clip-rule="evenodd" d="M15.4621 4.60322C16.5808 3.98177 17.139 2.78709 16.9704 1.62743C16.0109 0.90771 14.6566 0.775321 13.5379 1.39678C12.4192 2.01823 11.861 3.21291 12.0296 4.37257C12.9891 5.09229 14.3434 5.22468 15.4621 4.60322Z" stroke="#7CBCB5" stroke-width="1.4" stroke-linecap="round" stroke-linejoin="round"/>
</svg>
