<svg width="31" height="29" viewBox="0 0 31 29" fill="none" xmlns="http://www.w3.org/2000/svg">
<path fill-rule="evenodd" clip-rule="evenodd" d="M19.509 10.8221C21.3576 11.8454 21.5072 13.4273 19.8461 14.3539C18.1851 15.2809 15.3402 15.2005 13.4924 14.1764C11.6442 13.1532 11.4915 11.5725 13.1522 10.6468C14.8132 9.72018 17.6612 9.79844 19.509 10.8221Z" stroke="#7CBCB5" stroke-linejoin="round"/>
<path d="M20.5 1V3" stroke="#7CBCB5" stroke-linecap="round"/>
<path d="M13 3L14 4" stroke="#7CBCB5" stroke-linecap="round"/>
<path d="M25 3L24 4" stroke="#7CBCB5" stroke-linecap="round"/>
<path fill-rule="evenodd" clip-rule="evenodd" d="M30 11.2127L11.6642 22L1 15.7873L19.3358 5L30 11.2127Z" stroke="#7CBCB5" stroke-linejoin="round"/>
<path d="M30 14L11.6642 24L1 18.2407" stroke="#7CBCB5" stroke-linecap="round" stroke-linejoin="round"/>
<path d="M30 16L11.6642 26L1 20.2407" stroke="#7CBCB5" stroke-linecap="round" stroke-linejoin="round"/>
<path d="M1 15.5487V21.8224L11.6642 28L30 17.2738V11" stroke="#7CBCB5" stroke-linecap="round" stroke-linejoin="round"/>
<path d="M3 15C3.55214 15 4 15.6721 4 16.5008C4 17.3279 3.55214 18 3 18" stroke="#7CBCB5" stroke-linejoin="round"/>
<path d="M28 9C26.8947 9 26 9.67164 26 10.5006C26 11.3284 26.8947 12 28 12" stroke="#7CBCB5" stroke-linejoin="round"/>
<path d="M9 21C9 20.4476 9.89556 20 11.0002 20C12.1044 20 13 20.4476 13 21" stroke="#7CBCB5" stroke-linejoin="round"/>
<path d="M18 6C18 6.55221 18.6719 7 19.5 7C20.3281 7 21 6.55221 21 6" stroke="#7CBCB5" stroke-linejoin="round"/>
</svg>
