<svg width="26" height="26" viewBox="0 0 26 26" fill="none" xmlns="http://www.w3.org/2000/svg">
<path fill-rule="evenodd" clip-rule="evenodd" d="M12 7C13.6569 7 15 5.65699 15 4.00023C15 2.34348 13.6569 1 12 1C10.3431 1 9 2.34348 9 4.00023C9 5.65699 10.3431 7 12 7Z" stroke="#7CBCB5" stroke-width="1.2" stroke-linecap="round" stroke-linejoin="round"/>
<path fill-rule="evenodd" clip-rule="evenodd" d="M5.2265 21.8719L8.54006 18.5206C8.88513 18.1765 9.079 17.7124 9.079 17.2281V12.7137L7.74245 14.8401C7.40332 15.3798 7.38172 15.7085 6.73801 15.7085H2.83422C1.98045 15.7085 1.1823 15.147 1.02947 14.3179C0.829666 13.2422 1.67318 12.2954 2.72945 12.2954H5.03047C5.59371 12.2954 5.55051 12.0434 5.90368 11.6102L7.71275 9.25367C8.06646 8.82104 9.10762 8 10.3162 8H15.6834C16.8558 8 17.9331 8.82104 18.2869 9.25367L20.0959 11.6102C20.4491 12.0434 20.4059 12.2954 20.9691 12.2954H23.1654C24.0192 12.2954 24.8168 12.857 24.9707 13.6855C25.1699 14.7612 24.3264 15.7085 23.2702 15.7085H19.6904C19.1287 15.7085 18.5979 15.4586 18.2442 15.0281L16.9206 12.7137V17.2281C16.9206 17.7124 17.1145 18.1765 17.4595 18.5206L20.7731 21.8719C21.9368 23.0308 21.1047 25 19.4511 25H6.54847C4.89493 25 4.06276 23.0308 5.2265 21.8719Z" stroke="#7CBCB5" stroke-width="1.2" stroke-linecap="round" stroke-linejoin="round"/>
<path fill-rule="evenodd" clip-rule="evenodd" d="M19.5191 25H13.4809C12.6642 25 12 24.103 12 23C12 21.897 12.6642 21 13.4809 21H17.1173V21.0615H13.4809C12.6897 21.0615 12.0455 21.9308 12.0455 23C12.0455 24.0692 12.6897 24.9385 13.4809 24.9385H19.5191C20.3103 24.9385 20.9545 24.0692 20.9545 23H21C21 24.103 20.3358 25 19.5191 25Z" stroke="#7CBCB5" stroke-width="1.2" stroke-linecap="round" stroke-linejoin="round"/>
</svg>
