<svg width="19" height="17" viewBox="0 0 19 17" fill="none" xmlns="http://www.w3.org/2000/svg">
<mask id="mask0" mask-type="alpha" maskUnits="userSpaceOnUse" x="0" y="0" width="19" height="17">
<path fill-rule="evenodd" clip-rule="evenodd" d="M0 0H19V17H0V0Z" fill="white"/>
</mask>
<g mask="url(#mask0)">
<path fill-rule="evenodd" clip-rule="evenodd" d="M1.39698 1.63962C1.32051 1.74722 1.35572 1.61078 1.19106 1.84582C1.13629 1.92428 1.07227 2.01389 1.01395 2.08118L0.518175 2.80802C0.417883 2.99656 0.394055 3.09237 0.314746 3.22478L0.0963799 3.98728C0.0800202 4.10884 0.0565476 4.2093 0.0384097 4.32528C0.00106693 4.56032 0.0039121 4.81366 0.0039121 5.06607C0.00462339 5.71354 0.0320081 12.6756 0 12.7987C0.123765 12.8511 0.108828 12.8186 0.144392 12.9553C0.16004 13.0158 0.177111 13.1212 0.190982 13.1913C0.217655 13.3268 0.402235 13.9116 0.460561 14.0093C0.489368 14.0577 0.538803 14.0989 0.580769 14.1749C0.615267 14.2378 0.623447 14.2952 0.660078 14.3581C0.70809 14.4425 0.734408 14.4338 0.777441 14.5296C0.844302 14.6772 0.824386 14.6015 0.89836 14.6971C0.939615 14.7507 0.949218 14.8236 0.993673 14.8946L1.52323 15.4751C1.75475 15.6627 1.8771 15.809 2.16197 15.9879C2.22563 16.0279 2.26902 16.0441 2.33375 16.0909L2.50339 16.2159C2.59941 16.2773 2.61115 16.2528 2.69366 16.3011C2.79288 16.3588 2.73598 16.3616 2.87717 16.4069C2.97995 16.4397 2.98742 16.449 3.07491 16.49C3.23211 16.5644 3.14995 16.5542 3.37081 16.6649C3.37543 16.667 3.38183 16.6711 3.3861 16.6732L3.45367 16.6962C3.83813 16.765 3.54685 16.6974 3.7517 16.7886C3.77624 16.7994 3.78727 16.8035 3.80327 16.81C4.03551 16.9002 4.19946 16.8422 4.45197 16.8875L4.96019 16.965C6.53392 17.0246 8.19372 16.9911 9.80017 16.9864C10.6114 16.9843 11.4223 16.9827 12.2335 16.9815C12.6336 16.9808 13.0316 16.9691 13.4103 16.9647C13.8385 16.9598 14.1558 16.9012 14.5356 16.8915C14.6106 16.8463 15.1501 16.7771 15.4386 16.6636C15.4727 16.6503 15.5037 16.6391 15.5289 16.6283C15.6157 16.5911 15.7014 16.5328 15.8248 16.5005C16.0058 16.4534 15.8842 16.4999 16.0179 16.419C16.0595 16.3935 16.0723 16.3939 16.1196 16.3709C16.1666 16.3486 16.1755 16.339 16.2164 16.3185C16.2946 16.2794 16.328 16.276 16.3999 16.2255C16.6623 16.0394 16.6968 16.1039 16.9433 15.9238C17.0336 15.858 17.0361 15.8952 17.1055 15.8186L17.5593 15.4223C17.5906 15.3523 17.7471 15.2 17.8146 15.134L18.0839 14.8214C18.1066 14.7895 18.0945 14.8099 18.1144 14.7792C18.1383 14.742 18.1337 14.7414 18.1568 14.7017L18.4555 14.2564C18.5131 14.1749 18.4943 14.147 18.5387 14.0753C18.7073 13.8018 18.7599 13.4567 18.8898 13.1993C18.9431 13.093 18.9356 12.9162 18.957 12.7972C18.9694 12.4976 18.9972 12.2111 18.9972 11.8861L18.9993 5.36252C18.9989 4.64095 19.0228 4.32404 18.8215 3.65115C18.5885 2.87252 18.2684 2.4201 17.7602 1.79528C17.6923 1.71156 17.5831 1.63528 17.4974 1.54907C17.157 1.20736 16.4625 0.75494 16.0016 0.552143C14.6476 -0.0429134 13.8816 0.000498711 12.3381 0.000808797L5.92861 0.000498711C5.11489 0.000498711 4.77703 0.0439108 4.03978 0.202675L3.60909 0.312446L3.24171 0.449194C3.19476 0.46997 3.18552 0.474311 3.12968 0.491676C2.98778 0.536328 2.67303 0.723621 2.56029 0.785638C1.95285 1.12053 1.85505 1.30317 1.49051 1.5838C1.44321 1.62039 1.48091 1.59217 1.43894 1.61791L1.39698 1.63962ZM4.99682 6.19138C4.96019 6.30053 4.78841 6.58829 4.71337 6.76845C4.62375 6.98272 4.52488 7.17125 4.47082 7.39855C4.30651 8.08756 4.31825 8.23082 4.34705 8.95704L4.36413 8.85564C4.41854 9.54124 4.51492 9.40357 4.55653 9.69598C4.57609 9.83242 4.5768 9.74931 4.61165 9.85939C4.72262 10.2095 4.75427 10.1841 4.79375 10.2951C4.82646 10.3865 5.05728 10.7605 5.1156 10.839L5.3105 11.0808C5.41506 11.2771 5.53847 11.3813 5.69317 11.546L5.91687 11.7599C5.92079 11.7633 5.92612 11.7683 5.93003 11.7714C5.93394 11.7748 5.93928 11.7795 5.94319 11.7829L5.96951 11.8049C6.0065 11.8346 5.99725 11.8272 6.03922 11.8554C6.0666 11.874 6.07549 11.8793 6.09825 11.8942L6.15836 11.936C6.23909 12.0002 6.47417 12.1894 6.54992 12.2269C6.72561 12.3134 6.54957 12.2843 6.84511 12.3776L7.22209 12.5559C7.26762 12.5773 7.2701 12.5736 7.311 12.5909C7.43335 12.6434 7.38533 12.5863 7.41948 12.6871C7.76161 12.692 7.73458 12.7972 8.09414 12.8375C8.32922 12.8638 8.23604 12.857 8.32459 12.8933C8.46436 12.9516 9.16498 12.9879 9.35561 12.9894C9.77314 12.9928 10.0509 12.9848 10.4094 12.915C10.5043 12.8964 10.5694 12.9072 10.6665 12.8843C11.0936 12.7826 10.9215 12.8632 11.3188 12.7047C11.4589 12.6489 11.6125 12.6328 11.7267 12.5621C11.8469 12.4874 11.9924 12.4458 12.124 12.3807L12.6364 12.0982C12.6404 12.0951 12.646 12.0908 12.6507 12.0877C12.6549 12.0849 12.661 12.0802 12.6652 12.0774L12.7805 11.9978L13.5031 11.3525L13.8702 10.9252C13.8919 10.8334 13.9377 10.7949 13.99 10.727C14.1177 10.5602 14.4328 9.89815 14.4886 9.72978C14.5295 9.60512 14.6234 9.17255 14.6483 8.99518C14.7127 8.53904 14.7408 7.83019 14.5918 7.388C14.5619 7.29808 14.5697 7.2404 14.5427 7.15637C14.4918 6.99605 14.4396 6.83946 14.3837 6.70302L14.085 6.09463C14.0387 6.03044 14.0352 6.0599 13.9523 5.9399C13.799 5.71695 13.8179 5.69338 13.6184 5.50051L13.2186 5.11941L12.8523 4.86855C12.7926 4.82514 12.7492 4.7811 12.6873 4.7411C12.5845 4.67443 12.5682 4.70482 12.475 4.62389C12.2918 4.46513 11.8522 4.35381 11.7032 4.27628C11.6517 4.24962 11.6538 4.24124 11.6118 4.22791C11.5784 4.21737 11.5165 4.20899 11.4856 4.20062C11.2252 4.12992 11.1982 4.15566 11.0826 4.11039C10.9898 4.07411 10.408 4.00775 10.2671 3.98232C9.9346 3.92185 9.39864 3.89891 9.00352 3.94449C8.81823 3.96558 8.48037 3.9693 8.26413 4.03131C8.25631 4.03349 8.17771 4.05488 8.14499 4.06387L7.906 4.1293C7.7488 4.1631 7.28006 4.36993 7.19578 4.39474C7.09442 4.42481 7.06383 4.43629 6.9799 4.48001C6.74482 4.60249 6.41798 4.80715 6.2149 4.95103L6.073 5.05646C6.05166 5.07073 6.04562 5.07321 6.02783 5.08561C5.94639 5.1436 5.61884 5.47849 5.54629 5.53151C5.48121 5.57958 5.16966 6.00595 4.99682 6.19138ZM6.08972 8.44199C6.09007 8.72634 6.14627 9.19953 6.26861 9.42341C6.35076 9.57349 6.26185 9.50217 6.40091 9.67148C6.49231 9.78311 6.4034 9.75024 6.5958 9.95831C6.67653 10.0458 6.62105 10.0355 6.71245 10.131C6.83764 10.2625 6.84084 10.1872 6.90308 10.3186C6.96034 10.4389 6.93473 10.3468 7.06561 10.4817L7.09086 10.5075C7.09477 10.5109 7.10082 10.5158 7.10509 10.5189C7.3014 10.6793 7.14954 10.6327 7.31243 10.7283L7.55391 10.8814C7.6229 10.9298 7.57987 10.9245 7.66238 10.9692L8.076 11.176C8.48534 11.3252 9.059 11.4201 9.5128 11.4213C10.0986 11.4229 10.8063 11.3137 11.2772 11.0083C11.567 10.8204 11.8963 10.6079 12.1275 10.3558L12.2769 10.1661C12.2815 10.1605 12.2943 10.1447 12.2986 10.1391C12.3299 10.0994 12.3487 10.0771 12.3846 10.0327L12.6261 9.67427L12.8345 9.12139C12.8914 8.77099 12.9665 8.32819 12.9085 7.95019C12.8733 7.72228 12.8505 7.8336 12.816 7.48258C12.8061 7.38025 12.5874 6.91109 12.5251 6.81806L12.1556 6.41061C12.0923 6.35386 12.035 6.28347 11.96 6.21681L11.7199 6.0599C11.514 5.93339 11.1097 5.76191 10.8877 5.69028C10.7344 5.64035 10.3998 5.53492 10.2461 5.52841C9.85529 5.51167 9.05153 5.44314 8.66993 5.56128C8.53087 5.60438 8.49673 5.60562 8.34131 5.63818C7.90244 5.72997 7.79041 5.89649 7.65278 5.94858C7.51514 6.00037 7.39423 6.09494 7.28789 6.1827C7.26157 6.20409 7.20609 6.25371 7.17977 6.27107C6.97207 6.4072 6.93544 6.43635 6.7754 6.64814C6.4852 7.03202 6.47773 7.04939 6.26292 7.47731L6.09754 8.05593C6.08403 8.1657 6.09043 8.32757 6.08972 8.44199ZM15.971 3.78883C15.971 3.51006 15.9087 3.23501 15.6658 3.05423C15.4307 2.87934 15.2504 2.77763 14.8233 2.77825C14.5587 2.77856 14.3254 2.84957 14.1515 2.95035C14.1145 2.97206 13.9317 3.0995 13.9054 3.12555C13.8652 3.16555 13.8627 3.19036 13.825 3.23811C13.7894 3.28246 13.75 3.31222 13.7258 3.35502C13.6223 3.53797 13.58 3.84495 13.6287 4.03256C13.6426 4.08527 13.6554 4.08589 13.6785 4.17426C13.7361 4.39319 13.9456 4.618 14.1906 4.7073C14.6409 4.87041 14.9634 4.93398 15.4293 4.70792C15.5165 4.66575 15.4919 4.66637 15.578 4.60808L15.6079 4.58761C15.6121 4.58482 15.6182 4.58048 15.6228 4.57738C15.8252 4.43226 15.7466 4.45334 15.844 4.31008C16.0016 4.07938 15.971 4.14791 15.971 3.78883ZM1.51363 4.61769C1.49869 4.27194 1.54955 4.36249 1.56804 4.17613C1.578 4.07845 1.58191 4.03907 1.62245 3.96248C1.68469 3.84433 1.64166 3.8865 1.67758 3.76495C1.71528 3.63564 1.72773 3.75441 1.75404 3.58355C1.77752 3.43502 1.76507 3.49052 1.83406 3.39161C1.95 3.22664 1.98557 3.05547 2.12747 2.91531C2.17015 2.87345 2.19682 2.80926 2.23808 2.76151L2.731 2.30041C2.73527 2.29731 2.7406 2.29235 2.74487 2.28925C2.74878 2.28584 2.75447 2.28119 2.75874 2.27809L2.78719 2.25669C2.96679 2.11839 3.16987 1.93327 3.42522 1.80768C3.6539 1.69512 3.36654 1.79621 3.78336 1.62039C4.22685 1.43279 4.16781 1.4886 4.60632 1.35806C5.19527 1.18286 6.05735 1.25325 6.7658 1.25325C8.28298 1.25325 9.80017 1.25387 11.3177 1.25418C12.0258 1.25418 13.4768 1.21139 14.1056 1.30782L14.5559 1.39775C14.7856 1.48891 14.9083 1.4731 15.0225 1.50101L15.4638 1.72334C15.6456 1.80241 15.6921 1.89327 15.8554 1.99622C16.0325 2.10785 16.1826 2.15746 16.3604 2.31157C16.4262 2.36894 16.4173 2.3953 16.4863 2.45235C16.7765 2.69174 16.5581 2.58042 16.7121 2.73577C16.801 2.8257 16.8882 2.92617 16.9533 3.03036C16.9913 3.09113 17.0116 3.14075 17.05 3.19563C17.0528 3.19997 17.0571 3.20524 17.0603 3.20959C17.0632 3.21393 17.0674 3.21951 17.0703 3.22385C17.0735 3.22819 17.0774 3.23377 17.0809 3.23811L17.1546 3.35998C17.2051 3.49269 17.1467 3.40184 17.2378 3.58386C17.2851 3.67906 17.2332 3.60185 17.3132 3.71658L17.448 4.08434C17.4686 4.17737 17.4768 4.20496 17.501 4.28621C17.5571 4.47474 17.5337 5.51322 17.5337 5.75013C17.5337 6.91636 17.5881 12.1689 17.4914 12.6753C17.459 12.8461 17.4515 12.9472 17.3836 13.0871C17.289 13.2821 17.2812 13.3795 17.2011 13.5435L17.0681 13.7935C17.0546 13.8158 17.0255 13.8595 17.0098 13.8812C16.8459 14.1026 16.9465 14.0732 16.6588 14.3312L16.3419 14.6397C16.0919 14.7312 16.3849 14.6009 16.099 14.8239C16.0471 14.8645 16.0453 14.8893 15.9948 14.9368C15.9425 14.9857 15.94 14.978 15.8714 15.0152C15.7725 15.0685 15.6975 15.1141 15.6032 15.1684C15.4229 15.2723 15.5453 15.2127 15.3283 15.316L14.6892 15.5566C14.4349 15.6121 14.2532 15.6735 13.9612 15.6986C13.4018 15.7467 12.7691 15.725 12.1812 15.7228C11.5795 15.7207 10.9774 15.7194 10.376 15.7194C9.44737 15.7191 5.77888 15.7517 5.00607 15.6757C4.62873 15.6388 4.69168 15.6016 4.47046 15.5532C4.08886 15.4698 3.70938 15.3126 3.37187 15.1417L3.10656 14.9839C3.05571 14.9566 2.93265 14.8409 2.88571 14.7888C2.74452 14.6332 2.75625 14.778 2.64458 14.6102C2.51264 14.4127 2.58341 14.5696 2.43546 14.3832C2.3341 14.2558 2.26973 14.1702 2.13209 14.0558C2.12818 14.0524 2.12249 14.048 2.11858 14.0449C2.0158 13.9603 2.04781 13.9696 1.97028 13.809C1.92369 13.7119 1.94858 13.7575 1.89701 13.6905C1.70247 13.4384 1.81842 13.368 1.67438 13.0812C1.59614 12.9246 1.59969 12.9386 1.57693 12.7727C1.55595 12.6213 1.53781 12.5776 1.50936 12.448C1.44854 12.1698 1.49087 8.21252 1.49158 7.73499C1.49193 7.31823 1.44712 4.78514 1.51363 4.61769Z" fill="#437073"/>
</g>
</svg>
