<svg width="18" height="18" viewBox="0 0 18 18" fill="none" xmlns="http://www.w3.org/2000/svg">
<path fill-rule="evenodd" clip-rule="evenodd" d="M4.37646 9.00007C4.37646 6.49419 6.42352 4.48242 8.89411 4.48242C11.3647 4.48242 13.4118 6.52948 13.4118 9.00007C13.4118 11.4707 11.4 13.5177 8.89411 13.5177C6.38823 13.5177 4.37646 11.506 4.37646 9.00007ZM5.99999 9.00007C5.99999 10.5883 7.30588 11.8942 8.89411 11.8942C10.4823 11.8942 11.7882 10.5883 11.7882 9.00007C11.7882 7.41183 10.4823 6.10595 8.89411 6.10595C7.30588 6.10595 5.99999 7.41183 5.99999 9.00007Z" fill="#FAF9F1"/>
<circle cx="13.5882" cy="4.37607" r="1.02353" fill="#FAF9F1"/>
<path fill-rule="evenodd" clip-rule="evenodd" d="M12.5293 0.282227C14.0117 0.282227 15.3176 0.776344 16.2352 1.72929C17.1529 2.64693 17.647 3.91752 17.647 5.39987V12.6705C17.647 14.1881 17.1529 15.494 16.1999 16.4116C15.2823 17.294 14.0117 17.7881 12.4941 17.7881H5.29405C3.847 17.7881 2.57641 17.3293 1.62347 16.4116C0.635231 15.4587 0.141113 14.1528 0.141113 12.6352V5.39987C0.141113 2.32929 2.18817 0.282227 5.25876 0.282227H12.5293ZM15.0705 15.2469C15.7058 14.6469 16.0941 13.7646 16.0941 12.6705V5.39987C16.0941 4.37634 15.7411 3.49399 15.1411 2.8587C14.5058 2.2234 13.6235 1.90576 12.5646 1.90576H5.29405C4.23523 1.90576 3.31758 2.2234 2.71758 2.8234C2.08229 3.4587 1.76464 4.34105 1.76464 5.39987V12.6352C1.76464 13.7293 2.08229 14.6116 2.71758 15.2469C3.35288 15.8469 4.23523 16.1646 5.29405 16.1646H12.4941C13.5529 16.1646 14.4352 15.8469 15.0705 15.2469Z" fill="#FAF9F1"/>
</svg>
