<svg width="18" height="23" viewBox="0 0 18 23" fill="none" xmlns="http://www.w3.org/2000/svg">
<path fill-rule="evenodd" clip-rule="evenodd" d="M8.84245 21.1264C8.78925 21.1779 8.73738 21.1764 8.68752 21.1278C7.02692 19.5002 1.60872 13.8191 1.60872 9.0586C1.60872 5.11347 4.81838 1.904 8.76372 1.904C12.709 1.904 15.9188 5.11347 15.9188 9.0586C15.9188 13.6863 10.9689 19.0407 8.84245 21.1264ZM8.76372 1.05994C4.35312 1.05994 0.764648 4.6482 0.764648 9.0586C0.764648 14.0091 5.89218 19.5696 8.09818 21.7321C8.27618 21.9049 8.51272 22.0001 8.76412 22.0001C9.01552 22.0001 9.25212 21.9049 9.43178 21.7305C11.6359 19.5688 16.7628 14.0063 16.7628 9.0586C16.7628 4.6482 13.1743 1.05994 8.76372 1.05994Z" fill="#26413D"/>
<path d="M8.68752 21.1278L8.51252 21.3063L8.51303 21.3068L8.68752 21.1278ZM8.09818 21.7321L7.92317 21.9107L7.92408 21.9115L8.09818 21.7321ZM9.43178 21.7305L9.60588 21.91L9.60683 21.909L9.43178 21.7305ZM8.66851 20.9468C8.6702 20.9452 8.70301 20.9146 8.76389 20.9147C8.82487 20.9147 8.85856 20.9454 8.862 20.9488L8.51303 21.3068C8.56634 21.3588 8.65089 21.4146 8.76357 21.4147C8.87615 21.4147 8.9615 21.3591 9.01639 21.306L8.66851 20.9468ZM8.86251 20.9493C8.03739 20.1405 6.27959 18.3254 4.72981 16.1241C3.17313 13.9131 1.85872 11.3571 1.85872 9.0586H1.35872C1.35872 11.5206 2.7534 14.1854 4.32097 16.4119C5.89544 18.6483 7.67704 20.4875 8.51252 21.3063L8.86251 20.9493ZM1.85872 9.0586C1.85872 5.25155 4.95644 2.154 8.76372 2.154V1.654C4.68032 1.654 1.35872 4.97538 1.35872 9.0586H1.85872ZM8.76372 2.154C12.571 2.154 15.6688 5.25156 15.6688 9.0586H16.1688C16.1688 4.97538 12.8471 1.654 8.76372 1.654V2.154ZM15.6688 9.0586C15.6688 11.2936 14.4685 13.7363 12.9723 15.9037C11.4817 18.0631 9.72506 19.9105 8.66739 20.9479L9.01751 21.3049C10.0863 20.2566 11.8678 18.384 13.3838 16.1878C14.8942 13.9997 16.1688 11.4513 16.1688 9.0586H15.6688ZM8.76372 0.809937C4.21506 0.809937 0.514648 4.51012 0.514648 9.0586H1.01465C1.01465 4.78629 4.49117 1.30994 8.76372 1.30994V0.809937ZM0.514648 9.0586C0.514648 11.6112 1.83221 14.2911 3.39776 16.5819C4.96831 18.8801 6.81437 20.8237 7.92317 21.9107L8.27319 21.5536C7.17599 20.478 5.35529 18.5601 3.81057 16.2998C2.26086 14.0321 1.01465 11.4565 1.01465 9.0586H0.514648ZM7.92408 21.9115C8.14941 22.1302 8.44866 22.2501 8.76412 22.2501V21.7501C8.57677 21.7501 8.40296 21.6795 8.27228 21.5527L7.92408 21.9115ZM8.76412 22.2501C9.07987 22.2501 9.3791 22.13 9.60588 21.91L9.25769 21.5511C9.12513 21.6797 8.95116 21.7501 8.76412 21.7501V22.2501ZM9.60683 21.909C10.7147 20.8225 12.5601 18.8785 14.1303 16.5803C15.6954 14.2895 17.0128 11.6098 17.0128 9.0586H16.5128C16.5128 11.4551 15.2667 14.0305 13.7174 16.2983C12.1731 18.5587 10.353 20.4769 9.25673 21.5521L9.60683 21.909ZM17.0128 9.0586C17.0128 4.51012 13.3124 0.809937 8.76372 0.809937V1.30994C13.0363 1.30994 16.5128 4.78629 16.5128 9.0586H17.0128Z" fill="#7CBCB5"/>
<path fill-rule="evenodd" clip-rule="evenodd" d="M8.76422 12.1047C7.05258 12.1047 5.66004 10.7116 5.66004 8.99936C5.66004 7.28778 7.05258 5.89525 8.76422 5.89525C10.4764 5.89525 11.8693 7.28778 11.8693 8.99936C11.8693 10.7116 10.4764 12.1047 8.76422 12.1047ZM8.76422 5C6.55898 5 4.76465 6.79404 4.76465 8.99936C4.76465 11.2053 6.55898 13 8.76422 13C10.9701 13 12.7646 11.2053 12.7646 8.99936C12.7646 6.79404 10.9701 5 8.76422 5Z" fill="#437073"/>
<path d="M8.76422 11.8547C7.19074 11.8547 5.91004 10.5736 5.91004 8.99936H5.41004C5.41004 10.8496 6.91441 12.3547 8.76422 12.3547V11.8547ZM5.91004 8.99936C5.91004 7.42585 7.19064 6.14525 8.76422 6.14525V5.64525C6.91451 5.64525 5.41004 7.1497 5.41004 8.99936H5.91004ZM8.76422 6.14525C10.3384 6.14525 11.6193 7.42591 11.6193 8.99936H12.1193C12.1193 7.14964 10.6144 5.64525 8.76422 5.64525V6.14525ZM11.6193 8.99936C11.6193 10.5736 10.3383 11.8547 8.76422 11.8547V12.3547C10.6145 12.3547 12.1193 10.8496 12.1193 8.99936H11.6193ZM8.76422 4.75C6.42093 4.75 4.51465 6.65595 4.51465 8.99936H5.01465C5.01465 6.93213 6.69703 5.25 8.76422 5.25V4.75ZM4.51465 8.99936C4.51465 11.3433 6.42085 13.25 8.76422 13.25V12.75C6.6971 12.75 5.01465 11.0673 5.01465 8.99936H4.51465ZM8.76422 13.25C11.1082 13.25 13.0146 11.3434 13.0146 8.99936H12.5146C12.5146 11.0673 10.832 12.75 8.76422 12.75V13.25ZM13.0146 8.99936C13.0146 6.65591 11.1081 4.75 8.76422 4.75V5.25C10.8321 5.25 12.5146 6.93218 12.5146 8.99936H13.0146Z" fill="#7CBCB5"/>
</svg>
