<svg width="35" height="33" viewBox="0 0 35 33" fill="none" xmlns="http://www.w3.org/2000/svg">
<path fill-rule="evenodd" clip-rule="evenodd" d="M10.3956 10.8624H23.9176C24.1726 10.8624 24.3796 10.6554 24.3796 10.3994C24.3796 10.1444 24.1726 9.9374 23.9176 9.9374H10.3956C10.1406 9.9374 9.93359 10.1444 9.93359 10.3994C9.93359 10.6554 10.1406 10.8624 10.3956 10.8624Z" fill="#437073"/>
<path fill-rule="evenodd" clip-rule="evenodd" d="M24.3796 14.4631C24.3796 14.2081 24.1726 14.0011 23.9176 14.0011H10.3956C10.1406 14.0011 9.93359 14.2081 9.93359 14.4631C9.93359 14.7181 10.1406 14.9251 10.3956 14.9251H23.9176C24.1726 14.9251 24.3796 14.7181 24.3796 14.4631Z" fill="#437073"/>
<mask id="mask0" mask-type="alpha" maskUnits="userSpaceOnUse" x="0" y="1" width="35" height="32">
<path fill-rule="evenodd" clip-rule="evenodd" d="M0 1H34.7585V32.6065H0V1Z" fill="white"/>
</mask>
<g mask="url(#mask0)">
<path fill-rule="evenodd" clip-rule="evenodd" d="M33.372 29.9855L23.363 22.7185L33.372 15.4515V29.9855ZM2.722 31.2205L12.589 23.5855L17.024 26.7935C17.271 26.9715 17.605 26.9675 17.849 26.7845L22.076 23.5895L32.022 31.2205H2.722ZM1.386 15.4515L11.394 22.7185L1.386 29.9855V15.4515ZM5.992 10.8715V16.9515L1.863 13.8885L5.992 10.8715ZM7.379 8.1495C7.379 6.9025 8.459 5.8875 9.785 5.8875H24.973C26.3 5.8875 27.38 6.9025 27.38 8.1495V18.0895L21.923 22.0495C21.831 22.0725 21.741 22.1055 21.661 22.1655L17.422 25.3695L12.981 22.1565H12.98L7.379 18.0895V8.1495ZM17.38 2.5515L20.047 4.5015H14.711L17.38 2.5515ZM28.767 10.8725L32.909 13.8995L28.913 16.9755L28.767 17.0825V10.8725ZM34.474 13.3255L28.767 9.1545V8.1495C28.767 6.1375 27.063 4.5015 24.973 4.5015H22.397L17.788 1.1335C17.544 0.9555 17.213 0.9555 16.971 1.1335L12.36 4.5015H9.785C7.693 4.5015 5.992 6.1375 5.992 8.1495V9.1545L0.284 13.3255C0.105 13.4555 0.001 13.6625 0 13.8815C0 13.9215 0.007 13.9595 0.014 13.9975C0.009 14.0285 0 14.0595 0 14.0915V31.3455C0 31.4475 0.027 31.5435 0.068 31.6315C-0.002 31.7895 -0.022 31.9665 0.037 32.1375C0.133 32.4185 0.396 32.6065 0.693 32.6065H34.064C34.361 32.6065 34.626 32.4185 34.722 32.1365C34.779 31.9655 34.76 31.7885 34.688 31.6315C34.73 31.5435 34.759 31.4475 34.759 31.3455V14.0915C34.759 14.0595 34.75 14.0305 34.745 13.9995C34.752 13.9595 34.759 13.9185 34.759 13.8765C34.755 13.6585 34.65 13.4545 34.474 13.3255Z" fill="#437073"/>
</g>
</svg>
