<svg width="28" height="29" viewBox="0 0 28 29" fill="none" xmlns="http://www.w3.org/2000/svg">
<mask id="mask0" mask-type="alpha" maskUnits="userSpaceOnUse" x="13" y="0" width="15" height="16">
<path fill-rule="evenodd" clip-rule="evenodd" d="M13.1055 0.855225H27.7847V15.6423H13.1055V0.855225Z" fill="white"/>
</mask>
<g mask="url(#mask0)">
<path fill-rule="evenodd" clip-rule="evenodd" d="M14.3955 2.63251C14.1343 2.63251 13.9208 2.41829 13.9208 2.15518C13.9208 1.89118 14.1343 1.67607 14.3955 1.67607C21.3281 1.67607 26.969 7.35874 26.969 14.3436C26.969 14.6067 26.7564 14.821 26.4943 14.821C26.2331 14.821 26.0205 14.6067 26.0205 14.3436C26.0205 7.88585 20.8058 2.63251 14.3955 2.63251ZM26.4943 15.6423C27.2064 15.6423 27.7852 15.0601 27.7852 14.3436C27.7852 6.9054 21.7781 0.854736 14.3955 0.854736C13.6843 0.854736 13.1055 1.43785 13.1055 2.15518C13.1055 2.87163 13.6843 3.45385 14.3955 3.45385C20.3558 3.45385 25.2043 8.33918 25.2043 14.3436C25.2043 15.0601 25.784 15.6423 26.4943 15.6423Z" fill="#437073"/>
</g>
<path fill-rule="evenodd" clip-rule="evenodd" d="M21.7718 15.1452C21.5232 15.1452 21.3199 14.9225 21.3199 14.6481C21.3199 10.3466 18.1386 6.84719 14.229 6.84719C13.9795 6.84719 13.7762 6.62357 13.7762 6.35005C13.7762 6.07653 13.9795 5.85291 14.229 5.85291C18.6376 5.85291 22.2238 9.79864 22.2238 14.6481C22.2238 14.9225 22.0213 15.1452 21.7718 15.1452ZM14.229 5C13.5511 5 13 5.60526 13 6.35005C13 7.09484 13.5511 7.70102 14.229 7.70102C17.711 7.70102 20.5445 10.817 20.5445 14.6481C20.5445 15.3938 21.0948 16 21.7718 16C22.4489 16 23 15.3938 23 14.6481C23 9.32737 19.0652 5 14.229 5Z" fill="#437073"/>
<mask id="mask1" mask-type="alpha" maskUnits="userSpaceOnUse" x="0" y="3" width="26" height="26">
<path fill-rule="evenodd" clip-rule="evenodd" d="M0 3.43213H25.724V29H0V3.43213Z" fill="white"/>
</mask>
<g mask="url(#mask1)">
<path fill-rule="evenodd" clip-rule="evenodd" d="M2.13962 7.14923C2.15955 7.1313 2.17862 7.11158 2.19682 7.09185L2.23322 7.04882C2.25055 7.02909 2.26615 7.00937 2.28002 6.98785C2.35715 6.8722 2.44122 6.76282 2.52962 6.6624L3.33735 5.73716C3.92755 5.06296 4.77082 4.67565 5.65048 4.67565C6.42442 4.67565 7.16628 4.97151 7.74088 5.50944L9.10588 6.78523C9.72295 7.36351 10.0852 8.15516 10.1268 9.01585C10.1693 9.87565 9.88502 10.7014 9.32602 11.3406L8.51742 12.265C8.13522 12.7016 7.64815 13.0216 7.10735 13.1893L6.86122 13.2655C6.69048 13.3193 6.55268 13.4457 6.48248 13.6143C6.41228 13.7828 6.41748 13.9747 6.49635 14.1387L6.61075 14.3763C8.40735 18.1087 11.4597 21.0063 15.2055 22.5359L15.4178 22.6219C15.5712 22.6847 15.7428 22.6784 15.8919 22.6067C16.0409 22.535 16.1553 22.4032 16.2073 22.2409L16.2801 22.0176C16.4162 21.5981 16.6329 21.2161 16.9223 20.8844L17.7318 19.9601C18.322 19.285 19.1644 18.8976 20.0441 18.8976C20.8163 18.8976 21.559 19.1944 22.1336 19.7314L23.4986 21.0081C24.7726 22.2005 24.8714 24.2438 23.7196 25.5626L22.9101 26.4879C22.6917 26.738 22.4352 26.9514 22.1336 27.1325C21.3683 27.6193 20.363 27.8327 19.3057 27.7323C10.3929 26.9065 2.99068 19.9807 1.30242 10.8887C0.949682 8.99971 1.61008 7.61723 2.13962 7.14923ZM19.1973 28.9713C19.4028 28.9901 19.6073 29 19.8101 29C20.8995 29 21.9291 28.7221 22.7489 28.1994C23.1459 27.9636 23.4995 27.6677 23.8019 27.3216L24.6105 26.3964C26.2078 24.5692 26.07 21.7379 24.3046 20.0865L22.9396 18.8098C22.144 18.0647 21.1153 17.655 20.0441 17.655C18.8256 17.655 17.6581 18.1912 16.84 19.1254L16.0314 20.0515C15.722 20.4047 15.4741 20.7992 15.2895 21.2278C12.1158 19.8345 9.50975 17.3672 7.88388 14.2194C8.46282 13.9666 8.98282 13.5847 9.40835 13.0987L10.2161 12.1744C10.9909 11.2886 11.3852 10.1455 11.328 8.95309C11.2699 7.76158 10.7673 6.6642 9.91102 5.86358L8.54688 4.58778C7.75128 3.84275 6.72342 3.43213 5.65048 3.43213C4.43195 3.43213 3.26368 3.96827 2.44642 4.90337L1.63782 5.82861C1.52602 5.95682 1.41855 6.09489 1.32062 6.23923C0.417549 7.07034 -0.295718 8.88765 0.122882 11.1245C1.91082 20.7562 9.75502 28.0945 19.1973 28.9713Z" fill="#437073"/>
</g>
</svg>
