<svg width="13" height="17" viewBox="0 0 13 17" fill="none" xmlns="http://www.w3.org/2000/svg">
<mask id="mask0" mask-type="alpha" maskUnits="userSpaceOnUse" x="0" y="0" width="13" height="17">
<path fill-rule="evenodd" clip-rule="evenodd" d="M0 0H13V17H0V0Z" fill="white"/>
</mask>
<g mask="url(#mask0)">
<path fill-rule="evenodd" clip-rule="evenodd" d="M1.60557 9.62628C0.513638 9.00347 0.0240661 7.35452 0.000898326 6.1554C-0.0454373 3.76088 1.70678 1.47052 3.85163 0.564985C4.95698 0.0987289 6.54793 -0.223062 8.64736 0.190492C8.64736 0.190492 11.775 0.894835 12.7615 4.05415C12.7615 4.05415 13.5592 6.50912 12.2368 9.22016C12.2368 9.22016 11.2501 11.8673 8.45836 12.2301C8.45836 12.2301 6.3065 12.6253 5.44594 11.0136C5.1914 12.032 4.96704 13.1719 4.62714 14.1574C4.50338 14.5155 4.31864 14.9786 4.08117 15.3683C3.92997 15.6547 3.11453 17.0836 2.89321 16.9962C2.68714 16.9146 2.65849 14.8593 2.66397 14.6562C2.66397 13.7627 2.92461 12.8588 3.12459 11.9892L4.08056 7.83566C4.08056 7.83566 3.47149 6.64026 3.92296 5.24211C3.92296 5.24211 4.31072 3.74972 5.67152 3.746C7.04726 3.74259 7.05244 5.2573 6.74974 6.26173C6.68907 6.46386 6.61957 6.68614 6.54854 6.91555C6.32967 7.62392 6.09464 8.40329 6.04647 8.88132C6.03214 9.02858 6.03458 9.19288 6.06324 9.36029C6.12665 9.73075 6.3254 10.1204 6.80857 10.3973C6.80857 10.3973 7.70998 10.9032 8.72814 10.2606C9.67558 9.66255 10.1688 8.48637 10.4291 7.43481C10.9434 5.35464 10.7626 2.91455 8.54951 1.94081C7.03324 1.27398 4.77651 1.62181 3.57605 2.6898C2.00369 4.08949 1.16599 6.70319 2.53625 8.23092C2.75817 8.45661 2.70513 8.59735 2.64355 8.85838L2.47589 9.57017C2.37377 10.0429 1.87444 9.77973 1.60557 9.62628Z" fill="#437073"/>
</g>
</svg>
