<svg width="22" height="37" viewBox="0 0 22 37" fill="none" xmlns="http://www.w3.org/2000/svg">
<mask id="mask0" mask-type="alpha" maskUnits="userSpaceOnUse" x="0" y="1" width="22" height="36">
<path fill-rule="evenodd" clip-rule="evenodd" d="M0 1.00024H21.115V36.1327H0V1.00024Z" fill="white"/>
</mask>
<g mask="url(#mask0)">
<path fill-rule="evenodd" clip-rule="evenodd" d="M19.225 13.6958C19.22 13.7168 19.216 13.7378 19.212 13.7588C18.957 15.3118 18.605 16.5918 18.192 17.4598C17.144 19.6598 12.365 27.5108 10.558 30.4618C8.75 27.5108 3.971 19.6598 2.924 17.4598C2.511 16.5918 2.158 15.3118 1.904 13.7588C1.9 13.7378 1.896 13.7168 1.891 13.6958C1.718 12.9958 1.63 12.2758 1.63 11.5578C1.63 6.63476 5.635 2.63076 10.558 2.63076C15.48 2.63076 19.485 6.63476 19.485 11.5578C19.485 12.2758 19.397 12.9958 19.225 13.6958ZM14.591 33.4198C14.48 33.7278 13.118 34.5028 10.558 34.5028C7.968 34.5028 6.603 33.7098 6.522 33.4288C6.595 33.1588 7.707 32.4938 9.811 32.3618C9.834 32.4008 9.854 32.4318 9.864 32.4468C10.012 32.6878 10.275 32.8348 10.558 32.8348C10.84 32.8348 11.103 32.6878 11.251 32.4468C11.262 32.4318 11.28 32.4008 11.304 32.3608C13.38 32.4918 14.492 33.1418 14.591 33.4198ZM20.816 14.0538C21.014 13.2368 21.116 12.3958 21.116 11.5578C21.116 5.73676 16.379 0.999756 10.558 0.999756C4.737 0.999756 0 5.73676 0 11.5578C0 12.3958 0.101 13.2368 0.299 14.0538C0.581 15.7658 0.969 17.1478 1.452 18.1618C2.489 20.3408 6.855 27.5338 8.859 30.8108C6.15 31.1558 4.892 32.3208 4.892 33.4198C4.892 34.7258 6.665 36.1328 10.558 36.1328C14.451 36.1328 16.223 34.7258 16.223 33.4198C16.223 32.3208 14.966 31.1558 12.255 30.8108C14.26 27.5338 18.625 20.3408 19.663 18.1618C20.146 17.1478 20.534 15.7658 20.816 14.0538Z" fill="#437073"/>
</g>
<path fill-rule="evenodd" clip-rule="evenodd" d="M10.5566 15.3218C8.33062 15.3218 6.52163 13.5118 6.52163 11.2878C6.52163 9.06183 8.33062 7.25183 10.5566 7.25183C12.7816 7.25183 14.5906 9.06183 14.5906 11.2878C14.5906 13.5118 12.7816 15.3218 10.5566 15.3218ZM10.5566 5.62183C7.43162 5.62183 4.89062 8.16283 4.89062 11.2878C4.89062 14.4118 7.43162 16.9528 10.5566 16.9528C13.6806 16.9528 16.2216 14.4118 16.2216 11.2878C16.2216 8.16283 13.6806 5.62183 10.5566 5.62183Z" fill="#437073"/>
</svg>
