<svg width="64" height="45" viewBox="0 0 64 45" fill="none" xmlns="http://www.w3.org/2000/svg">
<mask id="mask0" mask-type="alpha" maskUnits="userSpaceOnUse" x="0" y="0" width="64" height="45">
<path fill-rule="evenodd" clip-rule="evenodd" d="M0 0.252197H63.9339V45H0V0.252197Z" fill="white"/>
</mask>
<g mask="url(#mask0)">
<path fill-rule="evenodd" clip-rule="evenodd" d="M61.7499 42.8382H2.18442V37.6753H3.62989H8.91663H55.0177H60.304H61.7499V42.8382ZM10.0088 35.5136H53.9255V7.64529H10.0088V35.5136ZM4.72211 2.41362H59.2122V35.5136H56.1095V6.56445C56.1095 5.96779 55.6206 5.48362 55.0177 5.48362H8.91663C8.31326 5.48362 7.82442 5.96779 7.82442 6.56445V35.5136H4.72211V2.41362ZM62.8421 35.5136H61.3966V1.33279C61.3966 0.73612 60.9074 0.251953 60.304 0.251953H3.62989C3.02653 0.251953 2.53768 0.73612 2.53768 1.33279V35.5136H1.09221C0.488842 35.5136 0 35.9978 0 36.5949V43.919C0 44.5161 0.488842 44.9999 1.09221 44.9999H62.8421C63.4451 44.9999 63.9339 44.5161 63.9339 43.919V36.5949C63.9339 35.9978 63.4451 35.5136 62.8421 35.5136Z" fill="#FDFDFD"/>
</g>
<path fill-rule="evenodd" clip-rule="evenodd" d="M21.0759 29C21.3513 29 21.6267 28.8892 21.8366 28.6672L30.1384 19.9037L34.2996 24.2962C34.7194 24.7398 35.4009 24.7398 35.8211 24.2962L44.6849 14.9389C45.105 14.4953 45.105 13.7758 44.6849 13.3327C44.2647 12.8891 43.5832 12.8891 43.163 13.3327L35.0603 21.8865L30.8991 17.494C30.4793 17.0504 29.7974 17.0504 29.3776 17.494L20.3151 27.061C19.895 27.5042 19.895 28.2236 20.3151 28.6672C20.525 28.8892 20.8005 29 21.0759 29Z" fill="#FDFDFD"/>
</svg>
