<svg width="52" height="45" viewBox="0 0 52 45" fill="none" xmlns="http://www.w3.org/2000/svg">
<mask id="mask0" mask-type="alpha" maskUnits="userSpaceOnUse" x="0" y="0" width="52" height="45">
<path fill-rule="evenodd" clip-rule="evenodd" d="M0 0.252197H51.6922V45H0V0.252197Z" fill="white"/>
</mask>
<g mask="url(#mask0)">
<path fill-rule="evenodd" clip-rule="evenodd" d="M2.21128 42.8382V9.93529L11.9353 21.8653C12.1454 22.1224 12.4634 22.2724 12.8005 22.2724H38.8922C39.2293 22.2724 39.5469 22.1224 39.757 21.8653L49.481 9.93529V42.8382H2.21128ZM13.546 7.92487H38.1467H48.2914L38.3594 20.1107H13.3333L3.40046 7.92487H13.546ZM14.6516 5.7632H37.041V2.41362H14.6516V5.7632ZM51.6722 6.65112C51.6556 6.56029 51.627 6.47445 51.5887 6.3932C51.5861 6.38737 51.5857 6.3807 51.5827 6.37487C51.5768 6.36279 51.567 6.35404 51.5601 6.34237C51.5243 6.2757 51.4821 6.21362 51.4327 6.15612C51.4186 6.13945 51.4063 6.12237 51.3913 6.10695C51.3295 6.04279 51.2613 5.9857 51.1855 5.93779C51.171 5.92862 51.1556 5.92195 51.1403 5.91362C51.0755 5.87654 51.006 5.84654 50.9336 5.82279C50.9106 5.81529 50.888 5.80779 50.8641 5.80195C50.775 5.77904 50.6834 5.7632 50.5866 5.7632H39.2519V1.33279C39.2519 0.73612 38.757 0.251953 38.1467 0.251953H13.546C12.9352 0.251953 12.4399 0.73612 12.4399 1.33279V5.7632H1.10564C1.00931 5.7632 0.917246 5.77904 0.827738 5.80195C0.804295 5.80779 0.781705 5.81529 0.759115 5.82279C0.686229 5.84654 0.61718 5.87654 0.551541 5.91362C0.536623 5.92195 0.520852 5.92862 0.506361 5.93779C0.430492 5.9857 0.362295 6.04279 0.301344 6.10695C0.286 6.12237 0.273639 6.13945 0.259574 6.1557C0.210557 6.21362 0.167934 6.2757 0.131705 6.34237C0.125311 6.35404 0.115508 6.36279 0.109541 6.37487C0.106984 6.3807 0.106557 6.38737 0.103574 6.3932C0.0652131 6.47445 0.0366557 6.56029 0.0196066 6.65112C0.0166229 6.66987 0.016623 6.68904 0.0140656 6.70779C0.00809836 6.7532 0 6.79737 0 6.84404V43.919C0 44.5161 0.495279 44.9999 1.10564 44.9999H50.5866C51.1974 44.9999 51.6923 44.5161 51.6923 43.919V6.84404C51.6923 6.79737 51.6842 6.7532 51.6786 6.70779C51.6761 6.68904 51.6761 6.66987 51.6722 6.65112Z" fill="white"/>
</g>
<path fill-rule="evenodd" clip-rule="evenodd" d="M26.0003 29.2575C25.1733 29.2575 24.5001 28.5886 24.5001 27.7661C24.5001 26.9435 25.1733 26.2746 26.0003 26.2746C26.8272 26.2746 27.5005 26.9435 27.5005 27.7661C27.5005 28.5886 26.8272 29.2575 26.0003 29.2575ZM26.0003 23.9363C23.8758 23.9363 22.1484 25.6544 22.1484 27.7661C22.1484 29.8777 23.8758 31.5959 26.0003 31.5959C28.1243 31.5959 29.8521 29.8777 29.8521 27.7661C29.8521 25.6544 28.1243 23.9363 26.0003 23.9363Z" fill="white"/>
</svg>
