<svg width="47" height="45" viewBox="0 0 47 45" fill="none" xmlns="http://www.w3.org/2000/svg">
<mask id="mask0" mask-type="alpha" maskUnits="userSpaceOnUse" x="0" y="0" width="47" height="45">
<path fill-rule="evenodd" clip-rule="evenodd" d="M0 0.540283H46.3077V45H0V0.540283Z" fill="white"/>
</mask>
<g mask="url(#mask0)">
<path fill-rule="evenodd" clip-rule="evenodd" d="M11.7418 27.7385L12.43 27.6534C12.4926 27.6984 12.5529 27.7483 12.6023 27.8115C12.7469 27.9927 12.8096 28.225 12.777 28.4658L12.3637 31.5964C12.2902 32.1461 12.4119 32.6374 12.7084 32.9768C12.918 33.22 13.2049 33.3684 13.5278 33.417C13.94 33.6323 14.4582 33.6311 14.9872 33.4049L17.8663 32.1692C17.9748 32.1218 18.0892 32.0974 18.2001 32.0974C18.3544 32.1947 18.4797 32.3407 18.546 32.5256L18.5821 32.6216L8.10838 42.1519L7.95171 37.4026C7.94086 37.0547 7.67212 36.7714 7.32866 36.7434L2.30207 36.3311L11.7418 27.7385ZM8.99415 25.9057C8.78445 25.8887 8.7013 25.8266 8.69166 25.8145C8.69045 25.8108 8.68925 25.7999 8.69166 25.7853C8.69648 25.7391 8.7242 25.6479 8.81458 25.5189L10.6247 22.9418C10.7127 22.8165 10.7862 22.6839 10.8452 22.5477C11.0248 22.1391 11.0766 21.6891 10.9886 21.2427C10.8729 20.6492 10.5247 20.142 10.0113 19.8149L7.36722 18.1243C7.28045 18.0684 7.22502 18.0185 7.19127 17.9796L7.18886 17.9772C7.15512 17.937 7.14307 17.9103 7.14307 17.903C7.14668 17.8835 7.19971 17.7947 7.38771 17.6987L8.82061 16.9629L10.1752 16.2647C10.7187 15.9862 11.1116 15.5119 11.2815 14.933C11.4442 14.3784 11.3815 13.7958 11.1116 13.2814C11.0983 13.257 11.0875 13.2327 11.0742 13.2084L9.51115 10.4719C9.43161 10.3345 9.41473 10.2408 9.41232 10.197C9.41232 10.1824 9.41232 10.1727 9.41353 10.1691C9.41715 10.1654 9.42799 10.1593 9.44366 10.1508C9.48343 10.1301 9.5702 10.1034 9.72325 10.1034L10.5295 10.1143L12.8807 10.1423C13.4845 10.1423 14.0424 9.90393 14.4546 9.47096C14.6607 9.25447 14.8173 9.00393 14.9186 8.73028C14.9294 8.70474 14.9318 8.67677 14.9402 8.65001C15.0234 8.39826 15.0668 8.13312 15.0559 7.85704L14.9318 4.70218C14.9234 4.49055 14.974 4.39812 15.015 4.38474C15.0463 4.38474 15.1403 4.39326 15.2897 4.47596L17.5518 5.70799L18.0447 5.97799C18.0772 5.99623 18.1121 6.00839 18.1459 6.02542C18.4424 6.16772 18.7641 6.24677 19.0871 6.24677C19.6511 6.24677 20.1717 6.02542 20.5658 5.65082C20.7598 5.46474 20.9261 5.24461 21.0466 4.98799L22.3904 2.13474C22.4169 2.0788 22.441 2.03745 22.4651 2.00339C22.5085 1.94015 22.5434 1.90731 22.5627 1.89272C22.5699 1.88663 22.5784 1.88177 22.5808 1.88177C22.588 1.88177 22.6073 1.8915 22.6314 1.90731C22.6434 1.91582 22.6567 1.92555 22.6723 1.94015C22.7121 1.97299 22.7591 2.02285 22.8121 2.1019L23.9956 3.8788L24.5584 4.72407C24.6946 4.92718 24.8621 5.10109 25.0489 5.24582C25.4225 5.53528 25.8792 5.70069 26.36 5.70069C26.5022 5.70069 26.6396 5.68245 26.7758 5.65569C27.0976 5.59245 27.4037 5.45988 27.6724 5.25555L28.6956 4.47961L30.1755 3.35947C30.3141 3.25488 30.3996 3.23299 30.4406 3.22812C30.4478 3.2269 30.4575 3.22569 30.4623 3.22447C30.4768 3.23663 30.5406 3.31934 30.5635 3.52974L30.9022 6.6688C30.9528 7.13217 31.142 7.54934 31.4252 7.87772C31.5312 8.00055 31.6518 8.1088 31.7807 8.20366C32.2302 8.5369 32.8063 8.69988 33.4149 8.60015L36.506 8.09542C36.6771 8.06623 36.8097 8.10393 36.8194 8.11001C36.8218 8.11366 36.8242 8.12339 36.8254 8.13434C36.8326 8.17691 36.8302 8.27177 36.7711 8.42745L35.6251 11.367C35.5986 11.4364 35.5745 11.5081 35.554 11.5799C35.554 11.5799 35.554 11.5811 35.5528 11.5823C35.5491 11.5981 35.5467 11.6139 35.5419 11.631C35.4383 12.0347 35.4491 12.4531 35.5757 12.8484C35.6034 12.9335 35.6347 13.0187 35.6733 13.1026C35.7203 13.2047 35.7817 13.2984 35.8444 13.3908C36.1095 13.7922 36.4928 14.0974 36.9604 14.2556L39.1754 15.0035L39.9286 15.2589C40.0623 15.3027 40.1335 15.3514 40.1696 15.3842C40.1877 15.4 40.1997 15.4134 40.2021 15.4183C40.2021 15.4304 40.1841 15.4803 40.131 15.5496C40.1021 15.5861 40.066 15.6274 40.0105 15.6749L38.5258 16.9714L37.6437 17.7412C37.1833 18.1426 36.9146 18.6947 36.8856 19.3004C36.8579 19.9049 37.0748 20.4814 37.4954 20.9253L39.6635 23.2045C39.8081 23.3565 39.8298 23.4599 39.8298 23.4745C39.8286 23.4769 39.8225 23.483 39.8153 23.4891C39.8129 23.4915 39.8129 23.4927 39.8105 23.4964C39.7755 23.5268 39.6948 23.5779 39.5417 23.6131L36.4952 24.3319C35.9035 24.4718 35.4094 24.8366 35.1057 25.3596C35.0394 25.4751 34.9851 25.5956 34.9406 25.7184C34.9394 25.7233 34.9381 25.7269 34.9369 25.7318C34.8923 25.8558 34.861 25.9835 34.8405 26.1137V26.1149C34.5597 26.5746 34.4308 26.9456 34.5585 27.3797L35.4274 30.4106V30.4118L32.4435 29.6297C32.3218 29.5981 32.1965 29.5811 32.0723 29.5701C32.0085 29.5653 31.947 29.558 31.8831 29.558C31.7687 29.558 31.6578 29.5701 31.5481 29.5872C31.5228 29.5908 31.4999 29.5945 31.4758 29.5981C31.3794 29.6176 31.2854 29.6419 31.1938 29.6735C31.1552 29.6869 31.1179 29.7015 31.0805 29.7161C31.0227 29.7404 30.966 29.7672 30.9106 29.7951C30.8383 29.8328 30.7684 29.8742 30.6997 29.9192C30.6768 29.935 30.6539 29.9508 30.631 29.9666C30.5262 30.0433 30.4274 30.1272 30.337 30.222C30.337 30.222 30.337 30.2233 30.3358 30.2233C29.8646 30.548 29.5392 31.032 29.4235 31.6049L28.8824 34.2635C28.8535 34.407 28.8739 34.5518 28.9318 34.6807C28.9101 34.671 28.8848 34.6564 28.8571 34.6393C28.851 34.6357 28.8462 34.632 28.8402 34.6296C28.8089 34.6077 28.7727 34.5797 28.7341 34.5433L26.4155 32.4197C26.2444 32.2629 26.0491 32.1424 25.8442 32.0476C25.5635 31.9199 25.2622 31.8433 24.95 31.8433C24.5752 31.8433 24.2137 31.9454 23.8931 32.1266C23.7835 32.1887 23.6798 32.2592 23.5822 32.3407C23.4677 32.4343 23.3617 32.5389 23.2665 32.6569L21.284 35.1027C21.2575 35.1368 21.2322 35.1623 21.2081 35.1854C21.1792 35.2134 21.1527 35.2377 21.1298 35.2535C21.1274 35.256 21.125 35.2584 21.1226 35.2596C21.1201 35.262 21.1189 35.262 21.1153 35.2633C21.078 35.2888 21.0502 35.2997 21.0382 35.301C21.0334 35.2985 21.0249 35.2912 21.0141 35.2827C21.0141 35.2827 21.0141 35.2827 21.0117 35.2815C20.9779 35.2487 20.9213 35.1745 20.8683 35.031L20.1464 33.0351C20.3284 32.8466 20.3935 32.5706 20.3031 32.3212L20.2525 32.1838C20.0428 31.6037 19.6222 31.1512 19.069 30.908C18.881 30.8265 18.6846 30.7742 18.4869 30.7474C18.3749 30.7073 18.2592 30.6757 18.1399 30.6538C18.1375 30.6526 18.1338 30.6526 18.1302 30.6514C18.0097 30.6295 17.8856 30.6173 17.759 30.6173C17.6108 30.6173 17.4662 30.6331 17.3216 30.6623H17.3192C17.1746 30.6927 17.0348 30.7377 16.8974 30.7961L16.8962 30.7973L14.1316 31.9831C14.1328 31.9564 14.1328 31.932 14.1376 31.9004L14.5546 28.7699V28.7687C14.6341 28.1545 14.4702 27.5573 14.0906 27.083C13.7387 26.6427 13.2398 26.3703 12.6818 26.2937H12.6806C12.6059 26.2669 12.53 26.2426 12.4505 26.2231C12.3408 26.1939 12.2299 26.1708 12.113 26.1611L11.0585 26.0747L8.99415 25.9057ZM36.4253 31.673C36.4687 31.628 36.5072 31.5806 36.5446 31.5307C36.6591 31.4504 36.7651 31.358 36.8507 31.2437C37.1399 30.8533 37.2086 30.3206 37.0447 29.7429L36.7639 28.765L44.2176 37.1083L39.0464 37.5911C38.7271 37.6203 38.4716 37.872 38.4342 38.1943L37.9088 42.732L30.4876 34.4301L31.0649 31.5854C31.0866 31.482 31.1275 31.3884 31.1793 31.3033C31.3613 31.2072 31.5722 31.1804 31.7795 31.2339L34.8092 32.0281C35.4576 32.1984 36.0457 32.0683 36.4253 31.673ZM0.0364273 37.1046C0.121991 37.3637 0.354581 37.5461 0.623325 37.568L6.61522 38.0593L6.80081 43.671C6.80925 43.9373 6.97074 44.1745 7.21417 44.2779C7.29853 44.3143 7.39012 44.3326 7.4793 44.3326C7.6444 44.3326 7.80709 44.2718 7.93363 44.1574L19.0835 34.0093L19.6198 35.4907C19.8801 36.2119 20.4091 36.6424 21.0358 36.6424C21.4998 36.6424 21.9541 36.3968 22.3132 35.9516L24.2945 33.5058C24.4596 33.3015 24.6982 33.1847 24.95 33.1847C25.0983 33.1847 25.3176 33.2237 25.5225 33.4122L27.8399 35.5369C28.2015 35.8689 28.6064 36.0441 29.0077 36.0441C29.2801 36.0441 29.5801 35.9565 29.838 35.7497L37.904 44.7741C38.0353 44.92 38.2197 45.0003 38.4077 45.0003C38.4776 45.0003 38.5475 44.9893 38.615 44.9674C38.8693 44.886 39.0512 44.6622 39.0826 44.3946L39.7189 38.9046L45.6915 38.3464C45.947 38.322 46.1675 38.1542 46.2615 37.9134C46.3543 37.6714 46.3049 37.3977 46.1338 37.2056L36.2204 26.11C36.2312 26.0857 36.2397 26.0601 36.2541 26.037C36.3698 25.8351 36.5627 25.6929 36.7977 25.6381L39.8442 24.9206C40.4914 24.7673 40.9505 24.3806 41.1036 23.8588C41.2566 23.3346 41.0819 22.7593 40.6227 22.2753L38.4547 19.9973C38.2896 19.8222 38.2028 19.5972 38.2137 19.3637C38.2245 19.1301 38.3294 18.9149 38.5126 18.7568L40.8806 16.6904C41.382 16.2526 41.6097 15.6956 41.5049 15.1604C41.4012 14.6253 40.9795 14.1972 40.3504 13.9843L37.3834 12.9834C37.1544 12.9068 36.9748 12.7474 36.8772 12.5358C36.7796 12.3242 36.7736 12.0834 36.8639 11.8572L38.0064 8.9188C38.2354 8.3338 38.204 7.7792 37.9196 7.35717C37.5942 6.87677 37.029 6.65177 36.2927 6.77218L33.204 7.27569C32.7075 7.35718 32.2784 7.01542 32.2242 6.52285L31.8831 3.3838C31.7735 2.3488 31.0878 1.88542 30.4563 1.88542C30.0984 1.88542 29.7248 2.02285 29.3777 2.28799L26.8758 4.18285C26.4878 4.47596 25.9298 4.37866 25.6599 3.97488L23.9148 1.35393C23.5641 0.829743 23.0905 0.540283 22.5808 0.540283C22.0011 0.540283 21.4925 0.912445 21.19 1.55947L19.8451 4.4115C19.6402 4.84934 19.1052 5.03177 18.6761 4.79826L15.9236 3.29623C15.2198 2.91312 14.4799 2.98366 14.0304 3.45677C13.8231 3.67569 13.5772 4.07947 13.6038 4.75569L13.7291 7.91055C13.7375 8.15136 13.6556 8.37393 13.4965 8.54177C13.3362 8.70961 13.1181 8.80082 12.8698 8.80082L9.70879 8.76312C9.05681 8.76312 8.53017 9.03069 8.26504 9.4965C7.9963 9.96596 8.03125 10.5656 8.35904 11.142L9.9233 13.8785C10.0426 14.0877 10.0715 14.3261 10.0077 14.5499C9.94138 14.7749 9.78712 14.9597 9.57261 15.0692L6.78515 16.5031C6.19343 16.8072 5.84032 17.2937 5.81381 17.8385C5.79091 18.3822 6.09702 18.8991 6.6562 19.2579L9.30145 20.9472C9.50271 21.0761 9.64009 21.2743 9.68468 21.503C9.73048 21.7341 9.67986 21.9676 9.53886 22.1658L7.72876 24.743C7.34674 25.2903 7.25876 25.8874 7.48653 26.3812C7.7155 26.8738 8.22527 27.1888 8.88689 27.2423L10.1462 27.3457L0.224427 36.3773C0.0231709 36.5597 -0.051547 36.8468 0.0364273 37.1046Z" fill="white"/>
</g>
</svg>
