<svg width="57" height="45" viewBox="0 0 57 45" fill="none" xmlns="http://www.w3.org/2000/svg">
<mask id="mask0" mask-type="alpha" maskUnits="userSpaceOnUse" x="0" y="0" width="57" height="45">
<path fill-rule="evenodd" clip-rule="evenodd" d="M0 0H57V45H0V0Z" fill="white"/>
</mask>
<g mask="url(#mask0)">
<path fill-rule="evenodd" clip-rule="evenodd" d="M50.643 20.9488L36.5247 6.504L40.6714 2.26109L54.7897 16.7058L50.643 20.9488ZM48.4068 21.3098L47.6347 22.8056C46.7374 24.544 45.6466 26.1914 44.4045 27.7305L39.4225 22.633C39.6971 22.4463 39.9441 22.2185 40.1551 21.9546C41.3722 20.4325 41.0684 17.955 39.4642 16.3134L35.5056 12.2629C34.3943 11.1264 33.1247 10.1812 31.77 9.45585L36.0345 8.65109L48.4068 21.3098ZM43.7516 32.4027C43.3779 32.8135 42.8952 32.9074 42.5561 32.9135C41.8782 32.9309 41.1725 32.6117 40.6251 32.0521L31.8458 23.0695C31.4884 22.7034 30.9086 22.7034 30.5515 23.0695C30.1936 23.4349 30.1936 24.028 30.5515 24.3938L39.3308 33.3764C39.3325 33.3782 39.3343 33.38 39.3361 33.3818L41.3023 35.3932C41.8496 35.9531 42.1566 36.673 42.1443 37.3684C42.1383 37.7153 42.0465 38.2092 41.6446 38.5919C40.9067 39.2952 39.4642 39.0519 38.4951 38.0605L37.8593 37.4099L27.8445 27.1633C27.4867 26.7976 26.9069 26.7976 26.5502 27.1633C26.1923 27.529 26.1923 28.1222 26.5502 28.4876L36.5649 38.7342C37.1119 39.2942 37.4189 40.0141 37.4069 40.7091C37.4009 41.0564 37.3091 41.5503 36.9075 41.933C36.1693 42.6363 34.7267 42.3926 33.7577 41.4015L30.6369 38.2085L23.8429 31.2575C23.485 30.8917 22.9053 30.8917 22.5481 31.2575C22.1907 31.6228 22.1907 32.216 22.5481 32.5817L29.3425 39.5328C29.8895 40.0928 30.1968 40.813 30.1845 41.508C30.1785 41.855 30.0871 42.3489 29.6851 42.7316C28.9469 43.4353 27.5047 43.1916 26.5357 42.2002L21.1447 36.6849C21.1447 36.6849 21.1447 36.6846 21.1444 36.6842H21.144L14.4481 29.8335C12.4021 27.7406 10.6921 25.3758 9.36561 22.8056L8.59351 21.3098L20.9658 8.65109L27.4913 9.88223C29.9406 10.344 32.3268 11.6596 34.2108 13.5872L38.1698 17.638C39.1014 18.5912 39.3565 19.9953 38.7383 20.7682C38.5354 21.022 38.2929 21.16 38.0636 21.2426L32.2732 15.3187C31.9157 14.953 31.3359 14.953 30.9788 15.3187C30.621 15.6841 30.621 16.2773 30.9788 16.643L37.1277 22.9341L43.2326 29.1801C44.2016 30.1715 44.4391 31.647 43.7516 32.4027ZM20.0928 41.933C19.6909 41.5503 19.5995 41.0564 19.5931 40.7091C19.5811 40.0141 19.8881 39.2942 20.4351 38.7342L20.4972 38.671L23.2013 41.4376C22.2334 42.3962 20.8212 42.6273 20.0928 41.933ZM18.5049 38.0605C17.5355 39.0519 16.0929 39.2945 15.3554 38.5919C14.9535 38.2092 14.8621 37.7153 14.8557 37.3684C14.8434 36.673 15.1507 35.9531 15.6977 35.3932L16.4956 34.5772L19.2025 37.3467L19.1411 37.4099L18.5049 38.0605ZM12.8856 30.8733C12.9756 30.9676 13.0624 31.0647 13.1538 31.1578L14.8405 32.8839C14.2219 32.9858 13.633 32.8255 13.2484 32.4027C12.9043 32.0243 12.7875 31.4676 12.8856 30.8733ZM2.21026 16.7058L16.3286 2.26109L20.4757 6.504L6.35696 20.9488L2.21026 16.7058ZM41.3189 0.274298C40.9614 -0.0914328 40.3813 -0.0914328 40.0242 0.274298L34.5828 5.84186C34.2638 6.16788 34.2313 6.67405 34.4818 7.03942L29.177 8.04022C28.9497 8.08282 28.7197 8.13914 28.4903 8.1951C28.2683 8.14095 28.0467 8.0821 27.8234 8.04022L22.5185 7.03942C22.7687 6.67405 22.7362 6.16788 22.4172 5.84186L16.9758 0.274298C16.6187 -0.0914328 16.0386 -0.0914328 15.6815 0.274298L0.268365 16.0437C-0.0894551 16.4094 -0.0894551 17.0023 0.268365 17.368L5.70977 22.9352C5.88833 23.1182 6.123 23.2099 6.35696 23.2099C6.59127 23.2099 6.82593 23.1182 7.00414 22.9352L7.23845 22.6958L7.7466 23.6804C8.77842 25.6791 10.0294 27.5586 11.4758 29.2949C10.7514 30.8444 10.8996 32.5698 11.9085 33.6789C12.4325 34.2544 13.1185 34.605 13.8631 34.7303C13.3105 35.5332 13.0091 36.4712 13.0253 37.402C13.043 38.4056 13.4273 39.3151 14.108 39.9632C15.0502 40.8603 16.443 41.0726 17.762 40.6538C17.762 40.6834 17.762 40.713 17.7627 40.743C17.7804 41.746 18.1647 42.6558 18.8454 43.3038C19.4792 43.9075 20.3169 44.2014 21.1994 44.2014C22.3392 44.2014 23.5524 43.7089 24.4968 42.763L25.241 43.5248C26.1906 44.4964 27.4228 45 28.5785 45C29.4607 45 30.2988 44.7061 30.9326 44.1025C31.4608 43.5995 31.8105 42.9392 31.9489 42.1994L32.4634 42.7258C34.1374 44.4389 36.6905 44.6978 38.155 43.3038C38.8353 42.6558 39.2196 41.746 39.2373 40.743C39.238 40.713 39.238 40.6834 39.238 40.6538C40.5584 41.073 41.9509 40.8603 42.8924 39.9632C43.5727 39.3151 43.957 38.4056 43.975 37.402C43.9909 36.4734 43.6945 35.5361 43.1443 34.7346C43.9023 34.6057 44.5806 34.2407 45.0919 33.6789C46.1121 32.5576 46.226 30.8123 45.5171 29.2869C46.9646 27.5478 48.2269 25.6693 49.2534 23.6804L49.7616 22.6958L49.9959 22.9352C50.1744 23.1182 50.4087 23.2099 50.643 23.2099C50.8774 23.2099 51.1117 23.1182 51.2902 22.9352L56.7316 17.368C57.0895 17.0023 57.0895 16.4094 56.7316 16.0437L41.3189 0.274298Z" fill="white"/>
</g>
</svg>
