<svg width="53" height="45" viewBox="0 0 53 45" fill="none" xmlns="http://www.w3.org/2000/svg">
<mask id="mask0" mask-type="alpha" maskUnits="userSpaceOnUse" x="0" y="18" width="44" height="27">
<path fill-rule="evenodd" clip-rule="evenodd" d="M0 18.0415H43.3873V44.9999H0V18.0415Z" fill="white"/>
</mask>
<g mask="url(#mask0)">
<path fill-rule="evenodd" clip-rule="evenodd" d="M21.51 29.6326H14.8538C14.517 29.6326 14.1991 29.7957 14.0011 30.0716C13.8044 30.3476 13.7491 30.7024 13.8556 31.0259C15.5799 36.2921 20.4296 39.8292 25.9245 39.8292C31.2295 39.8292 35.904 36.564 37.7873 31.6227H40.9787C38.9889 38.217 32.8555 42.8783 25.9245 42.8783C18.6136 42.8783 12.1555 37.6569 10.5699 30.4631C10.4635 29.9778 10.0351 29.6326 9.54342 29.6326H3.58911L12.5502 20.5927L21.51 29.6326ZM1.05112 31.7559H8.72167C10.8178 39.4785 17.9199 45.0003 25.9245 45.0003C34.2807 45.0003 41.6158 39.0218 43.3644 30.7839C43.4304 30.4699 43.3523 30.1437 43.1529 29.8936C42.9522 29.6448 42.6531 29.5007 42.3352 29.5007H37.0423C36.5843 29.5007 36.1788 29.7998 36.0401 30.2402C34.6364 34.7057 30.5707 37.7072 25.9245 37.7072C21.8427 37.7072 18.1866 35.3691 16.4178 31.7559H24.0479C24.4736 31.7559 24.8562 31.4949 25.0192 31.0993C25.1822 30.7024 25.092 30.247 24.7916 29.9439L13.2938 18.3402C12.8991 17.9419 12.2 17.9419 11.8066 18.3402L0.30885 29.9439C0.00844049 30.247 -0.0831642 30.7024 0.0798383 31.0993C0.242841 31.4949 0.626772 31.7559 1.05112 31.7559Z" fill="#FEFEFE"/>
</g>
<mask id="mask1" mask-type="alpha" maskUnits="userSpaceOnUse" x="8" y="0" width="45" height="27">
<path fill-rule="evenodd" clip-rule="evenodd" d="M8.71484 0.03125H52.274V26.9999H8.71484V0.03125Z" fill="white"/>
</mask>
<g mask="url(#mask1)">
<path fill-rule="evenodd" clip-rule="evenodd" d="M26.2472 2.15177C33.587 2.15177 40.0708 7.37313 41.6626 14.5669C41.7695 15.0522 42.1982 15.3975 42.6932 15.3975H48.6698L39.6745 24.4401L30.6792 15.3975H37.3618C37.6999 15.3975 38.0191 15.2344 38.2179 14.9584C38.4154 14.6838 38.4708 14.3277 38.364 14.0055C36.6328 8.73794 31.7639 5.19949 26.2472 5.19949C20.9211 5.19949 16.228 8.46743 14.3373 13.4074H11.1333C13.1309 6.81307 19.2887 2.15177 26.2472 2.15177ZM9.77135 15.5294H15.0852C15.5451 15.5294 15.9521 15.2303 16.0914 14.7899C17.5021 10.323 21.5825 7.32283 26.2472 7.32283C30.3465 7.32283 34.0158 9.66096 35.7916 13.2769H28.1312C27.7038 13.2769 27.3183 13.5338 27.156 13.9308C26.9924 14.3277 27.083 14.7831 27.3846 15.0876L38.9279 26.6898C39.1349 26.8965 39.4054 26.9998 39.6745 26.9998C39.9436 26.9998 40.2155 26.8965 40.4211 26.6898L51.9644 15.0876C52.2674 14.7831 52.3566 14.3277 52.1943 13.9308C52.0293 13.5338 51.6452 13.2769 51.2179 13.2769H43.5182C41.4124 5.55021 34.2836 0.0297852 26.2472 0.0297852C17.8564 0.0297852 10.4936 6.00968 8.73806 14.2461C8.67179 14.5601 8.74888 14.8864 8.9504 15.1352C9.15056 15.3839 9.45216 15.5294 9.77135 15.5294Z" fill="#FEFEFE"/>
</g>
</svg>
