<svg width="45" height="46" viewBox="0 0 45 46" fill="none" xmlns="http://www.w3.org/2000/svg">
<mask id="mask0" mask-type="alpha" maskUnits="userSpaceOnUse" x="0" y="0" width="45" height="46">
<path fill-rule="evenodd" clip-rule="evenodd" d="M0 0.10498H44.7992V45.6103H0V0.10498Z" fill="white"/>
</mask>
<g mask="url(#mask0)">
<path fill-rule="evenodd" clip-rule="evenodd" d="M42.7758 7.75842H41.4193H3.37994H2.02344V2.12732H42.7758V7.75842ZM4.39127 32.8304H40.4076V9.78086H4.39127V32.8304ZM22.2672 43.5874C21.4719 43.5874 20.8245 42.9406 20.8245 42.1454C20.8245 41.3497 21.4719 40.703 22.2672 40.703C23.0632 40.703 23.7103 41.3497 23.7103 42.1454C23.7103 42.9406 23.0632 43.5874 22.2672 43.5874ZM43.7875 0.104492H1.01172C0.452817 0.104492 0 0.557475 0 1.1161V8.77003C0 9.32827 0.452817 9.78086 1.01172 9.78086H2.36783V33.8416C2.36783 34.4002 2.82104 34.8528 3.37994 34.8528H21.3881V38.7979C19.9021 39.1885 18.8011 40.5393 18.8011 42.1454C18.8011 44.0555 20.3561 45.6102 22.2672 45.6102C24.1787 45.6102 25.7341 44.0555 25.7341 42.1454C25.7341 40.636 24.7614 39.3522 23.4115 38.8786V34.8528H41.4193C41.9782 34.8528 42.431 34.4002 42.431 33.8416V9.78086H43.7875C44.346 9.78086 44.7992 9.32827 44.7992 8.77003V1.1161C44.7992 0.557475 44.346 0.104492 43.7875 0.104492Z" fill="white"/>
</g>
<mask id="mask1" mask-type="alpha" maskUnits="userSpaceOnUse" x="0" y="1" width="45" height="45">
<path fill-rule="evenodd" clip-rule="evenodd" d="M0 46H45V1H0V46Z" fill="white"/>
</mask>
<g mask="url(#mask1)">
<path fill-rule="evenodd" clip-rule="evenodd" d="M12.124 27.9992H14.876V22.0008H12.124V27.9992ZM11.062 30H15.938C16.5247 30 17 29.5522 17 28.9998V21.0002C17 20.4478 16.5247 20 15.938 20H11.062C10.4757 20 10 20.4478 10 21.0002V28.9998C10 29.5522 10.4757 30 11.062 30Z" fill="white"/>
<path fill-rule="evenodd" clip-rule="evenodd" d="M21.1239 27.9963H23.8757V19.0044H21.1239V27.9963ZM20.0619 30H24.9377C25.5243 30 26 29.5515 26 28.9984V18.0024C26 17.4489 25.5243 17 24.9377 17H20.0619C19.4757 17 19 17.4489 19 18.0024V28.9984C19 29.5515 19.4757 30 20.0619 30Z" fill="white"/>
<path fill-rule="evenodd" clip-rule="evenodd" d="M30.1241 27.9957H32.8763V16.005H30.1241V27.9957ZM29.0616 30H33.9384C34.5247 30 35 29.5514 35 28.9981V15.0027C35 14.449 34.5247 14 33.9384 14H29.0616C28.4753 14 28 14.449 28 15.0027V28.9981C28 29.5514 28.4753 30 29.0616 30Z" fill="white"/>
</g>
</svg>
