<svg width="31" height="19" viewBox="0 0 31 19" fill="none" xmlns="http://www.w3.org/2000/svg">
<path fill-rule="evenodd" clip-rule="evenodd" d="M9.58624 0.892578C11.8933 0.892578 13.9878 1.80246 15.5306 3.28295C17.0733 1.80246 19.1678 0.892578 21.4749 0.892578C26.2169 0.892578 30.0611 4.73677 30.0611 9.47882C30.0611 14.2209 26.2169 18.0651 21.4749 18.0651C19.1678 18.0651 17.0733 17.1552 15.5306 15.6747C13.9878 17.1552 11.8933 18.0651 9.58624 18.0651C4.84419 18.0651 1 14.2209 1 9.47882C1 4.73677 4.84419 0.892578 9.58624 0.892578ZM9.58624 2.21354C11.5551 2.21354 13.3411 2.99673 14.6496 4.26856C13.5449 5.71349 12.8886 7.51952 12.8886 9.47882C12.8886 11.4381 13.5449 13.2441 14.6496 14.6891C13.3411 15.9609 11.5551 16.7441 9.58624 16.7441C5.57374 16.7441 2.32096 13.4913 2.32096 9.47882C2.32096 5.46631 5.57374 2.21354 9.58624 2.21354ZM16.4115 14.6891C17.72 15.9609 19.506 16.7441 21.4749 16.7441C25.4874 16.7441 28.7402 13.4913 28.7402 9.47882C28.7402 5.46631 25.4874 2.21354 21.4749 2.21354C19.506 2.21354 17.72 2.99673 16.4115 4.26856C17.5162 5.71349 18.1725 7.51952 18.1725 9.47882C18.1725 11.4381 17.5162 13.2441 16.4115 14.6891ZM16.8515 9.47882C16.8515 7.92351 16.3628 6.48235 15.5306 5.30052C14.6983 6.48235 14.2096 7.92351 14.2096 9.47882C14.2096 11.0341 14.6983 12.4753 15.5306 13.6571C16.3628 12.4753 16.8515 11.0341 16.8515 9.47882Z" fill="#7CBCB5"/>
<path d="M15.5306 3.28295L15.1844 3.64371L15.5306 3.97594L15.8768 3.64371L15.5306 3.28295ZM15.5306 15.6747L15.8768 15.3139L15.5306 14.9817L15.1844 15.3139L15.5306 15.6747ZM14.6496 4.26856L15.0468 4.57225L15.3165 4.2195L14.9981 3.91002L14.6496 4.26856ZM14.6496 14.6891L14.9981 15.0476L15.3165 14.7381L15.0468 14.3854L14.6496 14.6891ZM16.4115 14.6891L16.0143 14.3854L15.7446 14.7381L16.063 15.0476L16.4115 14.6891ZM16.4115 4.26856L16.063 3.91002L15.7446 4.2195L16.0143 4.57225L16.4115 4.26856ZM15.5306 5.30052L15.9394 5.01263L15.5306 4.43211L15.1218 5.01263L15.5306 5.30052ZM15.5306 13.6571L15.1218 13.945L15.5306 14.5255L15.9394 13.945L15.5306 13.6571ZM15.8768 2.92219C14.2447 1.35594 12.0274 0.392578 9.58624 0.392578V1.39258C11.7591 1.39258 13.731 2.24898 15.1844 3.64371L15.8768 2.92219ZM21.4749 0.392578C19.0337 0.392578 16.8165 1.35594 15.1844 2.92219L15.8768 3.64371C17.3301 2.24898 19.302 1.39258 21.4749 1.39258V0.392578ZM30.5611 9.47882C30.5611 4.46063 26.4931 0.392578 21.4749 0.392578V1.39258C25.9408 1.39258 29.5611 5.01291 29.5611 9.47882H30.5611ZM21.4749 18.5651C26.4931 18.5651 30.5611 14.497 30.5611 9.47882H29.5611C29.5611 13.9447 25.9408 17.5651 21.4749 17.5651V18.5651ZM15.1844 16.0354C16.8165 17.6017 19.0337 18.5651 21.4749 18.5651V17.5651C19.302 17.5651 17.3301 16.7087 15.8768 15.3139L15.1844 16.0354ZM9.58624 18.5651C12.0274 18.5651 14.2447 17.6017 15.8768 16.0354L15.1844 15.3139C13.731 16.7087 11.7591 17.5651 9.58624 17.5651V18.5651ZM0.5 9.47882C0.5 14.497 4.56805 18.5651 9.58624 18.5651V17.5651C5.12033 17.5651 1.5 13.9447 1.5 9.47882H0.5ZM9.58624 0.392578C4.56805 0.392578 0.5 4.46063 0.5 9.47882H1.5C1.5 5.01291 5.12033 1.39258 9.58624 1.39258V0.392578ZM14.9981 3.91002C13.6 2.55114 11.6904 1.71354 9.58624 1.71354V2.71354C11.4198 2.71354 13.0822 3.44232 14.3011 4.6271L14.9981 3.91002ZM13.3886 9.47882C13.3886 7.63306 14.0064 5.93302 15.0468 4.57225L14.2524 3.96488C13.0834 5.49396 12.3886 7.40597 12.3886 9.47882H13.3886ZM15.0468 14.3854C14.0064 13.0246 13.3886 11.3246 13.3886 9.47882H12.3886C12.3886 11.5517 13.0834 13.4637 14.2524 14.9928L15.0468 14.3854ZM9.58624 17.2441C11.6904 17.2441 13.6 16.4065 14.9981 15.0476L14.3011 14.3305C13.0822 15.5153 11.4198 16.2441 9.58624 16.2441V17.2441ZM1.82096 9.47882C1.82096 13.7675 5.29759 17.2441 9.58624 17.2441V16.2441C5.84988 16.2441 2.82096 13.2152 2.82096 9.47882H1.82096ZM9.58624 1.71354C5.29759 1.71354 1.82096 5.19017 1.82096 9.47882H2.82096C2.82096 5.74246 5.84988 2.71354 9.58624 2.71354V1.71354ZM21.4749 16.2441C19.6413 16.2441 17.979 15.5153 16.76 14.3305L16.063 15.0476C17.4611 16.4065 19.3707 17.2441 21.4749 17.2441V16.2441ZM28.2402 9.47882C28.2402 13.2152 25.2112 16.2441 21.4749 16.2441V17.2441C25.7635 17.2441 29.2402 13.7675 29.2402 9.47882H28.2402ZM21.4749 2.71354C25.2112 2.71354 28.2402 5.74246 28.2402 9.47882H29.2402C29.2402 5.19017 25.7635 1.71354 21.4749 1.71354V2.71354ZM16.76 4.6271C17.979 3.44232 19.6413 2.71354 21.4749 2.71354V1.71354C19.3707 1.71354 17.4611 2.55114 16.063 3.91002L16.76 4.6271ZM18.6725 9.47882C18.6725 7.40597 17.9778 5.49396 16.8087 3.96488L16.0143 4.57225C17.0547 5.93302 17.6725 7.63306 17.6725 9.47882H18.6725ZM16.8087 14.9928C17.9778 13.4637 18.6725 11.5517 18.6725 9.47882H17.6725C17.6725 11.3246 17.0547 13.0246 16.0143 14.3854L16.8087 14.9928ZM15.1218 5.5884C15.8966 6.68871 16.3515 8.02989 16.3515 9.47882H17.3515C17.3515 7.81712 16.829 6.27598 15.9394 5.01263L15.1218 5.5884ZM14.7096 9.47882C14.7096 8.02989 15.1645 6.68871 15.9394 5.5884L15.1218 5.01263C14.2321 6.27598 13.7096 7.81712 13.7096 9.47882H14.7096ZM15.9394 13.3692C15.1645 12.2689 14.7096 10.9277 14.7096 9.47882H13.7096C13.7096 11.1405 14.2321 12.6817 15.1218 13.945L15.9394 13.3692ZM16.3515 9.47882C16.3515 10.9277 15.8966 12.2689 15.1218 13.3692L15.9394 13.945C16.829 12.6817 17.3515 11.1405 17.3515 9.47882H16.3515Z" fill="#7CBCB5"/>
</svg>
