<svg width="22" height="17" viewBox="0 0 22 17" fill="none" xmlns="http://www.w3.org/2000/svg">
<mask id="mask0" mask-type="alpha" maskUnits="userSpaceOnUse" x="0" y="0" width="22" height="17">
<path fill-rule="evenodd" clip-rule="evenodd" d="M0 0H21.4737V17H0V0Z" fill="white"/>
</mask>
<g mask="url(#mask0)">
<path fill-rule="evenodd" clip-rule="evenodd" d="M10.5633 5.2796C10.5633 5.2796 9.8304 2.89884 11.922 1.12314C13.7621 -0.438881 16.3382 -0.390616 18.0904 1.38728C18.0904 1.38728 19.8693 1.0288 20.8872 0.312293C20.8872 0.312293 20.4965 1.80543 18.9438 2.71105C18.9438 2.71105 20.4041 2.55177 21.4737 2.03446C21.4737 2.03446 20.6407 3.32883 19.2624 4.24455C19.5914 8.47955 17.0353 13.0849 13.2912 15.2524C9.12065 17.6665 4.16919 17.5515 0 15.0808C0 15.0808 3.50885 15.5933 6.51145 13.2836C6.51145 13.2836 3.55009 13.4627 2.35721 10.2974C2.35721 10.2974 3.18978 10.5558 4.35184 10.2272C4.35184 10.2272 0.906898 9.65019 0.783622 6.00621C0.783622 6.00621 1.58583 6.48446 2.81995 6.52395C2.81995 6.52395 -0.429655 4.76186 1.40046 0.780021C1.40046 0.780021 4.50594 5.14051 10.5633 5.2796Z" fill="#437073"/>
</g>
</svg>
