<svg width="19" height="15" viewBox="0 0 19 15" fill="none" xmlns="http://www.w3.org/2000/svg">
<path fill-rule="evenodd" clip-rule="evenodd" d="M19 1.77562C18.3015 2.07723 17.5498 2.28069 16.7611 2.37173C17.5664 1.90338 18.1839 1.16151 18.4751 0.276515C17.7218 0.710771 16.888 1.02588 15.9998 1.19598C15.2889 0.460109 14.2757 0 13.1546 0C11.0021 0 9.25683 1.69543 9.25683 3.78691C9.25683 4.08328 9.29115 4.37216 9.35787 4.6498C6.11812 4.49168 3.24554 2.98434 1.3229 0.693161C0.987354 1.25219 0.795282 1.90263 0.795282 2.59729C0.795282 3.91093 1.48334 5.07019 2.52932 5.74911C1.89063 5.72926 1.28935 5.55877 0.763656 5.27514C0.763271 5.29088 0.763271 5.30699 0.763271 5.3231C0.763271 7.15754 2.107 8.68774 3.8904 9.03619C3.56334 9.12237 3.21893 9.16883 2.86333 9.16883C2.61186 9.16883 2.36772 9.14523 2.12975 9.10064C2.62613 10.605 4.06551 11.7002 5.771 11.7305C4.43692 12.7463 2.75649 13.3518 0.929887 13.3518C0.615553 13.3518 0.305077 13.3338 0 13.2986C1.72555 14.3735 3.77431 15 5.97542 15C13.1457 15 17.0662 9.2299 17.0662 4.22566C17.0662 4.06155 17.0627 3.89781 17.0554 3.7352C17.8167 3.2024 18.4778 2.5351 19 1.77562Z" fill="#FAF9F1"/>
</svg>
